<svg xmlns="http://www.w3.org/2000/svg" xmlns:xlink="http://www.w3.org/1999/xlink" width="700" zoomAndPan="magnify" viewBox="0 0 525 449.999984" height="600" preserveAspectRatio="xMidYMid meet" version="1.0"><defs><g/><clipPath id="fb6ff200ac"><path d="M 11 72.289062 L 513 72.289062 L 513 377.539062 L 11 377.539062 Z M 11 72.289062 " clip-rule="nonzero"/></clipPath><clipPath id="c559987227"><path d="M 218 227 L 306 227 L 306 248 L 218 248 Z M 218 227 " clip-rule="nonzero"/></clipPath><clipPath id="a44d6498cc"><path d="M 262.53125 302.464844 L 197.300781 237.234375 L 262.53125 172.003906 L 327.761719 237.234375 Z M 262.53125 302.464844 " clip-rule="nonzero"/></clipPath><clipPath id="706912d37c"><path d="M 262.53125 302.464844 L 197.300781 237.234375 L 262.53125 172.003906 L 327.761719 237.234375 Z M 262.53125 302.464844 " clip-rule="nonzero"/></clipPath><clipPath id="8e76403ebc"><path d="M 204 227 L 222 227 L 222 248 L 204 248 Z M 204 227 " clip-rule="nonzero"/></clipPath><clipPath id="a6c504ce5a"><path d="M 262.53125 302.464844 L 197.300781 237.234375 L 262.53125 172.003906 L 327.761719 237.234375 Z M 262.53125 302.464844 " clip-rule="nonzero"/></clipPath><clipPath id="f07170716f"><path d="M 262.53125 302.464844 L 197.300781 237.234375 L 262.53125 172.003906 L 327.761719 237.234375 Z M 262.53125 302.464844 " clip-rule="nonzero"/></clipPath><clipPath id="441885066a"><path d="M 302 227 L 328 227 L 328 248 L 302 248 Z M 302 227 " clip-rule="nonzero"/></clipPath><clipPath id="d09f4fb85d"><path d="M 262.53125 302.464844 L 197.300781 237.234375 L 262.53125 172.003906 L 327.761719 237.234375 Z M 262.53125 302.464844 " clip-rule="nonzero"/></clipPath><clipPath id="400749024a"><path d="M 262.53125 302.464844 L 197.300781 237.234375 L 262.53125 172.003906 L 327.761719 237.234375 Z M 262.53125 302.464844 " clip-rule="nonzero"/></clipPath><clipPath id="95463eab3c"><path d="M 243 235 L 281 235 L 281 239 L 243 239 Z M 243 235 " clip-rule="nonzero"/></clipPath><clipPath id="3a0adbead1"><path d="M 262.53125 302.464844 L 197.300781 237.234375 L 262.53125 172.003906 L 327.761719 237.234375 Z M 262.53125 302.464844 " clip-rule="nonzero"/></clipPath><clipPath id="ee02b2ea6e"><path d="M 262.53125 302.464844 L 197.300781 237.234375 L 262.53125 172.003906 L 327.761719 237.234375 Z M 262.53125 302.464844 " clip-rule="nonzero"/></clipPath></defs><rect x="-52.5" width="630" fill="#ffffff" y="-44.999998" height="539.99998" fill-opacity="1"/><rect x="-52.5" width="630" fill="#ffffff" y="-44.999998" height="539.99998" fill-opacity="1"/><rect x="-52.5" width="630" fill="#ffffff" y="-44.999998" height="539.99998" fill-opacity="1"/><g clip-path="url(#fb6ff200ac)"><path fill="#c7ddfc" d="M 70.058594 72.289062 C 62.253906 72.289062 55.96875 78.441406 55.96875 86.078125 L 55.96875 338.269531 C 55.96875 345.53125 54.945312 351.449219 61.558594 352.011719 L 15.257812 352.011719 C 9.777344 352.011719 12.578125 356.28125 12.578125 361.585938 L 12.578125 367.96875 C 12.578125 373.273438 16.992188 377.542969 22.46875 377.542969 L 502.160156 377.542969 C 507.640625 377.542969 512.050781 373.273438 512.050781 367.96875 L 512.050781 361.585938 C 512.050781 356.28125 514.851562 352.011719 509.375 352.011719 L 463.074219 352.011719 C 469.683594 351.449219 468.660156 345.53125 468.660156 338.269531 L 468.660156 86.078125 C 468.660156 78.441406 462.375 72.289062 454.570312 72.289062 L 70.054688 72.289062 Z M 191.773438 75.632812 C 193.777344 75.632812 195.402344 77.222656 195.402344 79.183594 C 195.402344 81.144531 193.777344 82.730469 191.773438 82.730469 C 189.769531 82.730469 188.148438 81.144531 188.148438 79.183594 C 188.148438 77.222656 189.769531 75.632812 191.773438 75.632812 Z M 69.714844 86.105469 L 454.917969 86.105469 L 454.917969 338.242188 L 69.714844 338.242188 Z M 199.691406 352.058594 L 324.9375 352.058594 C 324.75 354.726562 322.894531 356.808594 320.613281 356.808594 L 204.015625 356.808594 C 201.738281 356.808594 199.878906 354.726562 199.691406 352.058594 Z M 453.992188 359.609375 C 456.941406 359.609375 459.332031 361.921875 459.332031 364.777344 C 459.332031 367.632812 456.941406 369.949219 453.992188 369.949219 C 451.042969 369.949219 448.652344 367.632812 448.652344 364.777344 C 448.652344 361.921875 451.042969 359.609375 453.992188 359.609375 Z M 470.835938 359.609375 C 473.785156 359.609375 476.175781 361.921875 476.175781 364.777344 C 476.175781 367.632812 473.785156 369.949219 470.835938 369.949219 C 467.886719 369.949219 465.496094 367.632812 465.496094 364.777344 C 465.496094 361.921875 467.886719 359.609375 470.835938 359.609375 Z M 487.679688 359.609375 C 490.628906 359.609375 493.023438 361.921875 493.023438 364.777344 C 493.023438 367.632812 490.628906 369.949219 487.679688 369.949219 C 484.730469 369.949219 482.339844 367.632812 482.339844 364.777344 C 482.339844 361.921875 484.730469 359.609375 487.679688 359.609375 Z M 33.894531 363.03125 L 61.917969 363.03125 C 63.289062 363.03125 64.390625 363.8125 64.390625 364.777344 C 64.390625 365.746094 63.289062 366.523438 61.917969 366.523438 L 33.894531 366.523438 C 32.523438 366.523438 31.421875 365.746094 31.421875 364.777344 C 31.421875 363.8125 32.523438 363.03125 33.894531 363.03125 Z M 33.894531 363.03125 " fill-opacity="1" fill-rule="nonzero"/></g><g clip-path="url(#c559987227)"><g clip-path="url(#a44d6498cc)"><g clip-path="url(#706912d37c)"><path fill="#001c53" d="M 305.125 227.65625 C 305.402344 227.929688 305.542969 228.261719 305.542969 228.652344 L 305.53125 245.71875 C 305.53125 245.90625 305.496094 246.085938 305.421875 246.257812 C 305.351562 246.433594 305.25 246.585938 305.117188 246.71875 C 304.984375 246.851562 304.832031 246.953125 304.65625 247.023438 C 304.484375 247.097656 304.304688 247.132812 304.117188 247.132812 L 219.8125 247.175781 C 219.625 247.175781 219.441406 247.140625 219.269531 247.066406 C 219.097656 246.996094 218.945312 246.894531 218.8125 246.761719 C 218.679688 246.628906 218.578125 246.476562 218.503906 246.304688 C 218.433594 246.128906 218.398438 245.949219 218.398438 245.761719 L 218.40625 228.699219 C 218.40625 228.511719 218.441406 228.332031 218.515625 228.160156 C 218.585938 227.988281 218.6875 227.832031 218.820312 227.699219 C 218.953125 227.566406 219.105469 227.464844 219.28125 227.394531 C 219.453125 227.320312 219.632812 227.285156 219.820312 227.285156 L 304.128906 227.238281 C 304.519531 227.242188 304.851562 227.378906 305.125 227.65625 Z M 302.703125 244.304688 L 302.710938 230.074219 L 221.234375 230.113281 L 221.226562 244.34375 Z M 302.703125 244.304688 " fill-opacity="1" fill-rule="nonzero"/></g></g></g><g clip-path="url(#8e76403ebc)"><g clip-path="url(#a6c504ce5a)"><g clip-path="url(#f07170716f)"><path fill="#001c53" d="M 220.820312 227.699219 C 221.097656 227.976562 221.234375 228.308594 221.234375 228.699219 L 221.226562 245.761719 C 221.226562 245.949219 221.1875 246.128906 221.117188 246.300781 C 221.046875 246.476562 220.941406 246.628906 220.8125 246.761719 C 220.679688 246.894531 220.523438 246.996094 220.351562 247.066406 C 220.179688 247.140625 220 247.175781 219.8125 247.175781 L 210.761719 247.179688 C 210.34375 247.179688 209.929688 247.140625 209.519531 247.058594 C 209.105469 246.976562 208.707031 246.855469 208.320312 246.695312 C 207.933594 246.535156 207.566406 246.335938 207.21875 246.105469 C 206.871094 245.871094 206.550781 245.609375 206.253906 245.3125 C 205.957031 245.015625 205.691406 244.695312 205.460938 244.34375 C 205.226562 243.996094 205.03125 243.628906 204.871094 243.242188 C 204.710938 242.855469 204.589844 242.457031 204.507812 242.046875 C 204.425781 241.636719 204.386719 241.222656 204.386719 240.804688 L 204.386719 233.675781 C 204.390625 233.257812 204.429688 232.84375 204.511719 232.433594 C 204.59375 232.019531 204.714844 231.621094 204.878906 231.234375 C 205.039062 230.847656 205.234375 230.480469 205.46875 230.132812 C 205.699219 229.785156 205.964844 229.460938 206.261719 229.164062 C 206.558594 228.871094 206.878906 228.605469 207.230469 228.371094 C 207.578125 228.140625 207.945312 227.941406 208.332031 227.78125 C 208.71875 227.621094 209.117188 227.5 209.527344 227.417969 C 209.9375 227.335938 210.351562 227.292969 210.773438 227.292969 L 219.820312 227.289062 C 220.210938 227.285156 220.546875 227.425781 220.820312 227.699219 Z M 218.398438 244.34375 L 218.40625 230.117188 L 210.777344 230.121094 C 210.308594 230.121094 209.855469 230.210938 209.417969 230.394531 C 208.984375 230.574219 208.601562 230.832031 208.269531 231.164062 C 207.933594 231.496094 207.679688 231.878906 207.496094 232.316406 C 207.316406 232.75 207.226562 233.203125 207.226562 233.675781 L 207.222656 240.800781 C 207.222656 241.273438 207.3125 241.726562 207.492188 242.160156 C 207.671875 242.59375 207.929688 242.976562 208.261719 243.3125 C 208.59375 243.644531 208.976562 243.898438 209.414062 244.078125 C 209.847656 244.261719 210.300781 244.351562 210.769531 244.351562 Z M 218.398438 244.34375 " fill-opacity="1" fill-rule="nonzero"/></g></g></g><g clip-path="url(#441885066a)"><g clip-path="url(#d09f4fb85d)"><g clip-path="url(#400749024a)"><path fill="#001c53" d="M 326.703125 236.175781 C 326.785156 236.257812 326.855469 236.351562 326.917969 236.453125 C 326.976562 236.550781 327.023438 236.660156 327.058594 236.769531 C 327.089844 236.882812 327.109375 236.996094 327.117188 237.113281 C 327.121094 237.230469 327.109375 237.347656 327.085938 237.464844 C 327.0625 237.578125 327.027344 237.6875 326.972656 237.792969 C 326.921875 237.898438 326.859375 237.996094 326.785156 238.085938 C 326.707031 238.175781 326.625 238.253906 326.527344 238.324219 C 326.433594 238.394531 326.332031 238.449219 326.222656 238.492188 L 304.636719 247.035156 C 304.527344 247.074219 304.417969 247.105469 304.304688 247.121094 C 304.1875 247.136719 304.074219 247.136719 303.960938 247.125 C 303.84375 247.113281 303.734375 247.085938 303.625 247.046875 C 303.515625 247.007812 303.414062 246.957031 303.320312 246.890625 C 303.222656 246.828125 303.136719 246.75 303.058594 246.664062 C 302.984375 246.578125 302.917969 246.484375 302.863281 246.382812 C 302.808594 246.28125 302.769531 246.175781 302.742188 246.0625 C 302.710938 245.949219 302.699219 245.835938 302.699219 245.722656 L 302.710938 228.65625 C 302.710938 228.542969 302.726562 228.429688 302.753906 228.316406 C 302.78125 228.203125 302.820312 228.097656 302.875 227.996094 C 302.929688 227.894531 302.996094 227.800781 303.070312 227.714844 C 303.148438 227.628906 303.234375 227.550781 303.332031 227.488281 C 303.425781 227.421875 303.527344 227.371094 303.636719 227.328125 C 303.746094 227.289062 303.855469 227.261719 303.96875 227.25 C 304.085938 227.238281 304.199219 227.238281 304.3125 227.253906 C 304.429688 227.269531 304.539062 227.296875 304.648438 227.339844 L 326.222656 235.859375 C 326.40625 235.933594 326.566406 236.039062 326.703125 236.175781 Z M 305.53125 243.636719 L 321.851562 237.179688 L 305.539062 230.738281 Z M 305.53125 243.636719 " fill-opacity="1" fill-rule="nonzero"/></g></g></g><g clip-path="url(#95463eab3c)"><g clip-path="url(#3a0adbead1)"><g clip-path="url(#ee02b2ea6e)"><path fill="#001c53" d="M 279.875 236.199219 C 280.078125 236.402344 280.207031 236.644531 280.261719 236.921875 C 280.316406 237.203125 280.289062 237.476562 280.179688 237.742188 C 280.070312 238.003906 279.898438 238.21875 279.660156 238.375 C 279.421875 238.535156 279.160156 238.613281 278.875 238.617188 L 245.0625 238.632812 C 244.875 238.632812 244.695312 238.597656 244.519531 238.523438 C 244.347656 238.453125 244.195312 238.351562 244.0625 238.21875 C 243.929688 238.085938 243.828125 237.933594 243.753906 237.761719 C 243.683594 237.585938 243.648438 237.40625 243.648438 237.21875 C 243.648438 237.03125 243.683594 236.851562 243.753906 236.675781 C 243.828125 236.503906 243.929688 236.351562 244.0625 236.21875 C 244.195312 236.085938 244.347656 235.984375 244.523438 235.910156 C 244.695312 235.839844 244.875 235.804688 245.0625 235.804688 L 278.875 235.785156 C 279.265625 235.785156 279.597656 235.921875 279.875 236.199219 Z M 279.875 236.199219 " fill-opacity="1" fill-rule="nonzero"/></g></g></g><g fill="#001c53" fill-opacity="1"><g transform="translate(179.522765, 152.134882)"><g><path d="M 25.5 -18.359375 L 19.65625 0 L 17.6875 0 L 12.953125 -11.15625 L 8.390625 0 L 6.484375 0 L 0.625 -18.359375 L 3.640625 -18.359375 L 7.1875 -6.875 C 7.3125 -6.457031 7.421875 -6.054688 7.515625 -5.671875 C 7.609375 -5.285156 7.691406 -4.914062 7.765625 -4.5625 C 7.847656 -4.914062 7.953125 -5.285156 8.078125 -5.671875 C 8.203125 -6.054688 8.351562 -6.46875 8.53125 -6.90625 L 11.828125 -15.1875 L 14.375 -15.1875 L 17.578125 -6.90625 C 17.765625 -6.425781 17.921875 -6 18.046875 -5.625 C 18.171875 -5.25 18.273438 -4.90625 18.359375 -4.59375 C 18.410156 -4.90625 18.484375 -5.253906 18.578125 -5.640625 C 18.679688 -6.023438 18.8125 -6.460938 18.96875 -6.953125 L 22.453125 -18.359375 Z M 25.5 -18.359375 "/></g></g></g><g fill="#001c53" fill-opacity="1"><g transform="translate(205.644497, 152.134882)"><g><path d="M 13.71875 -1.8125 L 13.6875 -1.8125 C 13.132812 -1.269531 12.367188 -0.785156 11.390625 -0.359375 C 10.410156 0.0546875 9.382812 0.265625 8.3125 0.265625 C 6.882812 0.265625 5.625 -0.0351562 4.53125 -0.640625 C 3.4375 -1.242188 2.582031 -2.070312 1.96875 -3.125 C 1.351562 -4.1875 1.046875 -5.394531 1.046875 -6.75 C 1.046875 -8.28125 1.367188 -9.59375 2.015625 -10.6875 C 2.660156 -11.78125 3.515625 -12.617188 4.578125 -13.203125 C 5.648438 -13.796875 6.816406 -14.09375 8.078125 -14.09375 C 9.234375 -14.09375 10.28125 -13.804688 11.21875 -13.234375 C 12.164062 -12.660156 12.921875 -11.875 13.484375 -10.875 C 14.046875 -9.882812 14.328125 -8.722656 14.328125 -7.390625 L 14.296875 -6.25 L 3.75 -6.25 C 3.90625 -5 4.414062 -4.007812 5.28125 -3.28125 C 6.144531 -2.5625 7.242188 -2.203125 8.578125 -2.203125 C 9.535156 -2.203125 10.3125 -2.378906 10.90625 -2.734375 C 11.507812 -3.097656 12 -3.445312 12.375 -3.78125 Z M 8.078125 -11.59375 C 7.046875 -11.59375 6.144531 -11.351562 5.375 -10.875 C 4.601562 -10.394531 4.097656 -9.566406 3.859375 -8.390625 L 11.5625 -8.390625 L 11.5625 -8.578125 C 11.507812 -9.171875 11.3125 -9.691406 10.96875 -10.140625 C 10.632812 -10.597656 10.210938 -10.953125 9.703125 -11.203125 C 9.203125 -11.460938 8.660156 -11.59375 8.078125 -11.59375 Z M 8.078125 -11.59375 "/></g></g></g><g fill="#001c53" fill-opacity="1"><g transform="translate(221.013304, 152.134882)"><g><path d="M 1.890625 0 L 1.890625 -19.40625 L 4.59375 -19.40625 L 4.59375 0 Z M 1.890625 0 "/></g></g></g><g fill="#001c53" fill-opacity="1"><g transform="translate(227.569967, 152.134882)"><g><path d="M 3.625 -6.90625 C 3.625 -5.988281 3.828125 -5.175781 4.234375 -4.46875 C 4.648438 -3.757812 5.191406 -3.195312 5.859375 -2.78125 C 6.535156 -2.375 7.257812 -2.171875 8.03125 -2.171875 C 8.90625 -2.171875 9.664062 -2.398438 10.3125 -2.859375 C 10.957031 -3.316406 11.484375 -3.789062 11.890625 -4.28125 L 13.375 -2.4375 C 13.039062 -1.96875 12.585938 -1.523438 12.015625 -1.109375 C 11.441406 -0.703125 10.785156 -0.367188 10.046875 -0.109375 C 9.316406 0.140625 8.546875 0.265625 7.734375 0.265625 C 6.472656 0.265625 5.335938 -0.046875 4.328125 -0.671875 C 3.316406 -1.304688 2.515625 -2.164062 1.921875 -3.25 C 1.335938 -4.332031 1.046875 -5.550781 1.046875 -6.90625 C 1.046875 -8.269531 1.335938 -9.488281 1.921875 -10.5625 C 2.515625 -11.632812 3.316406 -12.484375 4.328125 -13.109375 C 5.335938 -13.742188 6.472656 -14.0625 7.734375 -14.0625 C 9.015625 -14.0625 10.148438 -13.800781 11.140625 -13.28125 C 12.140625 -12.769531 12.882812 -12.101562 13.375 -11.28125 L 11.890625 -9.4375 C 11.484375 -10.039062 10.90625 -10.554688 10.15625 -10.984375 C 9.414062 -11.410156 8.695312 -11.625 8 -11.625 C 7.175781 -11.625 6.429688 -11.414062 5.765625 -11 C 5.109375 -10.59375 4.585938 -10.035156 4.203125 -9.328125 C 3.816406 -8.617188 3.625 -7.8125 3.625 -6.90625 Z M 3.625 -6.90625 "/></g></g></g><g fill="#001c53" fill-opacity="1"><g transform="translate(241.601224, 152.134882)"><g><path d="M 15.078125 -6.90625 C 15.078125 -5.5 14.765625 -4.257812 14.140625 -3.1875 C 13.523438 -2.113281 12.6875 -1.269531 11.625 -0.65625 C 10.570312 -0.0390625 9.390625 0.265625 8.078125 0.265625 C 6.765625 0.265625 5.570312 -0.0390625 4.5 -0.65625 C 3.4375 -1.269531 2.59375 -2.113281 1.96875 -3.1875 C 1.351562 -4.257812 1.046875 -5.5 1.046875 -6.90625 C 1.046875 -8.300781 1.351562 -9.535156 1.96875 -10.609375 C 2.59375 -11.679688 3.4375 -12.523438 4.5 -13.140625 C 5.570312 -13.753906 6.765625 -14.0625 8.078125 -14.0625 C 9.390625 -14.0625 10.570312 -13.753906 11.625 -13.140625 C 12.6875 -12.523438 13.523438 -11.679688 14.140625 -10.609375 C 14.765625 -9.535156 15.078125 -8.300781 15.078125 -6.90625 Z M 12.328125 -6.90625 C 12.347656 -7.832031 12.171875 -8.648438 11.796875 -9.359375 C 11.421875 -10.066406 10.90625 -10.613281 10.25 -11 C 9.601562 -11.394531 8.878906 -11.59375 8.078125 -11.59375 C 7.273438 -11.59375 6.546875 -11.394531 5.890625 -11 C 5.234375 -10.613281 4.71875 -10.066406 4.34375 -9.359375 C 3.96875 -8.648438 3.785156 -7.832031 3.796875 -6.90625 C 3.785156 -5.988281 3.96875 -5.175781 4.34375 -4.46875 C 4.71875 -3.757812 5.234375 -3.203125 5.890625 -2.796875 C 6.546875 -2.398438 7.273438 -2.203125 8.078125 -2.203125 C 8.878906 -2.203125 9.601562 -2.398438 10.25 -2.796875 C 10.90625 -3.203125 11.421875 -3.757812 11.796875 -4.46875 C 12.171875 -5.175781 12.347656 -5.988281 12.328125 -6.90625 Z M 12.328125 -6.90625 "/></g></g></g><g fill="#001c53" fill-opacity="1"><g transform="translate(257.730606, 152.134882)"><g><path d="M 8.890625 -14.015625 C 10.023438 -14.015625 10.929688 -13.753906 11.609375 -13.234375 C 12.296875 -12.722656 12.789062 -12.019531 13.09375 -11.125 C 13.332031 -11.5625 13.6875 -12.003906 14.15625 -12.453125 C 14.632812 -12.898438 15.1875 -13.269531 15.8125 -13.5625 C 16.445312 -13.863281 17.125 -14.015625 17.84375 -14.015625 C 19.03125 -14.015625 19.953125 -13.753906 20.609375 -13.234375 C 21.273438 -12.722656 21.742188 -12.03125 22.015625 -11.15625 C 22.296875 -10.289062 22.4375 -9.328125 22.4375 -8.265625 L 22.4375 0 L 19.703125 0 L 19.703125 -8.109375 C 19.703125 -9.117188 19.507812 -9.9375 19.125 -10.5625 C 18.738281 -11.195312 18.015625 -11.515625 16.953125 -11.515625 C 15.929688 -11.515625 15.09375 -11.195312 14.4375 -10.5625 C 13.78125 -9.925781 13.453125 -9.148438 13.453125 -8.234375 L 13.453125 0 L 10.734375 0 L 10.734375 -8.15625 C 10.734375 -9.132812 10.519531 -9.9375 10.09375 -10.5625 C 9.675781 -11.195312 8.988281 -11.515625 8.03125 -11.515625 C 7.363281 -11.515625 6.765625 -11.363281 6.234375 -11.0625 C 5.710938 -10.769531 5.300781 -10.382812 5 -9.90625 C 4.707031 -9.425781 4.5625 -8.890625 4.5625 -8.296875 L 4.5625 0 L 1.84375 0 L 1.84375 -13.765625 L 4.5625 -13.765625 L 4.5625 -11.5625 C 4.976562 -12.195312 5.566406 -12.765625 6.328125 -13.265625 C 7.097656 -13.765625 7.953125 -14.015625 8.890625 -14.015625 Z M 8.890625 -14.015625 "/></g></g></g><g fill="#001c53" fill-opacity="1"><g transform="translate(281.88534, 152.134882)"><g><path d="M 13.71875 -1.8125 L 13.6875 -1.8125 C 13.132812 -1.269531 12.367188 -0.785156 11.390625 -0.359375 C 10.410156 0.0546875 9.382812 0.265625 8.3125 0.265625 C 6.882812 0.265625 5.625 -0.0351562 4.53125 -0.640625 C 3.4375 -1.242188 2.582031 -2.070312 1.96875 -3.125 C 1.351562 -4.1875 1.046875 -5.394531 1.046875 -6.75 C 1.046875 -8.28125 1.367188 -9.59375 2.015625 -10.6875 C 2.660156 -11.78125 3.515625 -12.617188 4.578125 -13.203125 C 5.648438 -13.796875 6.816406 -14.09375 8.078125 -14.09375 C 9.234375 -14.09375 10.28125 -13.804688 11.21875 -13.234375 C 12.164062 -12.660156 12.921875 -11.875 13.484375 -10.875 C 14.046875 -9.882812 14.328125 -8.722656 14.328125 -7.390625 L 14.296875 -6.25 L 3.75 -6.25 C 3.90625 -5 4.414062 -4.007812 5.28125 -3.28125 C 6.144531 -2.5625 7.242188 -2.203125 8.578125 -2.203125 C 9.535156 -2.203125 10.3125 -2.378906 10.90625 -2.734375 C 11.507812 -3.097656 12 -3.445312 12.375 -3.78125 Z M 8.078125 -11.59375 C 7.046875 -11.59375 6.144531 -11.351562 5.375 -10.875 C 4.601562 -10.394531 4.097656 -9.566406 3.859375 -8.390625 L 11.5625 -8.390625 L 11.5625 -8.578125 C 11.507812 -9.171875 11.3125 -9.691406 10.96875 -10.140625 C 10.632812 -10.597656 10.210938 -10.953125 9.703125 -11.203125 C 9.203125 -11.460938 8.660156 -11.59375 8.078125 -11.59375 Z M 8.078125 -11.59375 "/></g></g></g><g fill="#001c53" fill-opacity="1"><g transform="translate(297.254147, 152.134882)"><g/></g></g><g fill="#001c53" fill-opacity="1"><g transform="translate(304.597603, 152.134882)"><g><path d="M 6.296875 0 L 3.59375 0 L 3.59375 -11.15625 L 0.734375 -11.15625 L 0.734375 -13.765625 L 3.59375 -13.765625 L 3.59375 -17.28125 L 6.296875 -17.28125 L 6.296875 -13.765625 L 9.5 -13.765625 L 9.5 -11.15625 L 6.296875 -11.15625 Z M 6.296875 0 "/></g></g></g><g fill="#001c53" fill-opacity="1"><g transform="translate(314.668632, 152.134882)"><g><path d="M 15.078125 -6.90625 C 15.078125 -5.5 14.765625 -4.257812 14.140625 -3.1875 C 13.523438 -2.113281 12.6875 -1.269531 11.625 -0.65625 C 10.570312 -0.0390625 9.390625 0.265625 8.078125 0.265625 C 6.765625 0.265625 5.570312 -0.0390625 4.5 -0.65625 C 3.4375 -1.269531 2.59375 -2.113281 1.96875 -3.1875 C 1.351562 -4.257812 1.046875 -5.5 1.046875 -6.90625 C 1.046875 -8.300781 1.351562 -9.535156 1.96875 -10.609375 C 2.59375 -11.679688 3.4375 -12.523438 4.5 -13.140625 C 5.570312 -13.753906 6.765625 -14.0625 8.078125 -14.0625 C 9.390625 -14.0625 10.570312 -13.753906 11.625 -13.140625 C 12.6875 -12.523438 13.523438 -11.679688 14.140625 -10.609375 C 14.765625 -9.535156 15.078125 -8.300781 15.078125 -6.90625 Z M 12.328125 -6.90625 C 12.347656 -7.832031 12.171875 -8.648438 11.796875 -9.359375 C 11.421875 -10.066406 10.90625 -10.613281 10.25 -11 C 9.601562 -11.394531 8.878906 -11.59375 8.078125 -11.59375 C 7.273438 -11.59375 6.546875 -11.394531 5.890625 -11 C 5.234375 -10.613281 4.71875 -10.066406 4.34375 -9.359375 C 3.96875 -8.648438 3.785156 -7.832031 3.796875 -6.90625 C 3.785156 -5.988281 3.96875 -5.175781 4.34375 -4.46875 C 4.71875 -3.757812 5.234375 -3.203125 5.890625 -2.796875 C 6.546875 -2.398438 7.273438 -2.203125 8.078125 -2.203125 C 8.878906 -2.203125 9.601562 -2.398438 10.25 -2.796875 C 10.90625 -3.203125 11.421875 -3.757812 11.796875 -4.46875 C 12.171875 -5.175781 12.347656 -5.988281 12.328125 -6.90625 Z M 12.328125 -6.90625 "/></g></g></g><g fill="#001c53" fill-opacity="1"><g transform="translate(330.788382, 152.134882)"><g/></g></g><g fill="#001c53" fill-opacity="1"><g transform="translate(338.131837, 152.134882)"><g/></g></g><g fill="#001c53" fill-opacity="1"><g transform="translate(117.096988, 207.634877)"><g><path d="M 9.109375 -30.96875 L 9.109375 -17.734375 L 24.546875 -17.734375 L 24.546875 -30.96875 L 29.328125 -30.96875 L 29.328125 0 L 24.546875 0 L 24.546875 -13.140625 L 9.109375 -13.140625 L 9.109375 0 L 4.328125 0 L 4.328125 -30.96875 Z M 9.109375 -30.96875 "/></g></g></g><g fill="#001c53" fill-opacity="1"><g transform="translate(150.753419, 207.634877)"><g><path d="M 25.4375 -11.640625 C 25.4375 -9.273438 24.910156 -7.1875 23.859375 -5.375 C 22.816406 -3.5625 21.398438 -2.140625 19.609375 -1.109375 C 17.828125 -0.078125 15.832031 0.4375 13.625 0.4375 C 11.414062 0.4375 9.410156 -0.078125 7.609375 -1.109375 C 5.804688 -2.140625 4.378906 -3.5625 3.328125 -5.375 C 2.285156 -7.1875 1.765625 -9.273438 1.765625 -11.640625 C 1.765625 -13.992188 2.285156 -16.078125 3.328125 -17.890625 C 4.378906 -19.703125 5.804688 -21.125 7.609375 -22.15625 C 9.410156 -23.1875 11.414062 -23.703125 13.625 -23.703125 C 15.832031 -23.703125 17.828125 -23.1875 19.609375 -22.15625 C 21.398438 -21.125 22.816406 -19.703125 23.859375 -17.890625 C 24.910156 -16.078125 25.4375 -13.992188 25.4375 -11.640625 Z M 20.796875 -11.640625 C 20.816406 -13.203125 20.507812 -14.578125 19.875 -15.765625 C 19.25 -16.960938 18.390625 -17.890625 17.296875 -18.546875 C 16.203125 -19.210938 14.976562 -19.546875 13.625 -19.546875 C 12.269531 -19.546875 11.035156 -19.210938 9.921875 -18.546875 C 8.816406 -17.890625 7.945312 -16.960938 7.3125 -15.765625 C 6.6875 -14.578125 6.382812 -13.203125 6.40625 -11.640625 C 6.382812 -10.097656 6.6875 -8.726562 7.3125 -7.53125 C 7.945312 -6.34375 8.816406 -5.410156 9.921875 -4.734375 C 11.035156 -4.054688 12.269531 -3.71875 13.625 -3.71875 C 14.976562 -3.71875 16.203125 -4.054688 17.296875 -4.734375 C 18.390625 -5.410156 19.25 -6.34375 19.875 -7.53125 C 20.507812 -8.726562 20.816406 -10.097656 20.796875 -11.640625 Z M 20.796875 -11.640625 "/></g></g></g><g fill="#001c53" fill-opacity="1"><g transform="translate(177.952773, 207.634877)"><g><path d="M 25.4375 -11.640625 C 25.4375 -9.273438 24.910156 -7.1875 23.859375 -5.375 C 22.816406 -3.5625 21.398438 -2.140625 19.609375 -1.109375 C 17.828125 -0.078125 15.832031 0.4375 13.625 0.4375 C 11.414062 0.4375 9.410156 -0.078125 7.609375 -1.109375 C 5.804688 -2.140625 4.378906 -3.5625 3.328125 -5.375 C 2.285156 -7.1875 1.765625 -9.273438 1.765625 -11.640625 C 1.765625 -13.992188 2.285156 -16.078125 3.328125 -17.890625 C 4.378906 -19.703125 5.804688 -21.125 7.609375 -22.15625 C 9.410156 -23.1875 11.414062 -23.703125 13.625 -23.703125 C 15.832031 -23.703125 17.828125 -23.1875 19.609375 -22.15625 C 21.398438 -21.125 22.816406 -19.703125 23.859375 -17.890625 C 24.910156 -16.078125 25.4375 -13.992188 25.4375 -11.640625 Z M 20.796875 -11.640625 C 20.816406 -13.203125 20.507812 -14.578125 19.875 -15.765625 C 19.25 -16.960938 18.390625 -17.890625 17.296875 -18.546875 C 16.203125 -19.210938 14.976562 -19.546875 13.625 -19.546875 C 12.269531 -19.546875 11.035156 -19.210938 9.921875 -18.546875 C 8.816406 -17.890625 7.945312 -16.960938 7.3125 -15.765625 C 6.6875 -14.578125 6.382812 -13.203125 6.40625 -11.640625 C 6.382812 -10.097656 6.6875 -8.726562 7.3125 -7.53125 C 7.945312 -6.34375 8.816406 -5.410156 9.921875 -4.734375 C 11.035156 -4.054688 12.269531 -3.71875 13.625 -3.71875 C 14.976562 -3.71875 16.203125 -4.054688 17.296875 -4.734375 C 18.390625 -5.410156 19.25 -6.34375 19.875 -7.53125 C 20.507812 -8.726562 20.816406 -10.097656 20.796875 -11.640625 Z M 20.796875 -11.640625 "/></g></g></g><g fill="#001c53" fill-opacity="1"><g transform="translate(205.152126, 207.634877)"><g><path d="M 16.59375 -17.125 C 15.757812 -17.945312 14.816406 -18.625 13.765625 -19.15625 C 12.722656 -19.6875 11.757812 -19.953125 10.875 -19.953125 C 10.257812 -19.953125 9.648438 -19.875 9.046875 -19.71875 C 8.441406 -19.570312 7.929688 -19.300781 7.515625 -18.90625 C 7.109375 -18.507812 6.90625 -17.925781 6.90625 -17.15625 C 6.925781 -16.101562 7.398438 -15.351562 8.328125 -14.90625 C 9.265625 -14.46875 10.425781 -14.070312 11.8125 -13.71875 C 13.019531 -13.382812 14.195312 -12.972656 15.34375 -12.484375 C 16.5 -12.003906 17.453125 -11.300781 18.203125 -10.375 C 18.953125 -9.445312 19.328125 -8.140625 19.328125 -6.453125 C 19.328125 -5.015625 18.921875 -3.773438 18.109375 -2.734375 C 17.296875 -1.703125 16.25 -0.914062 14.96875 -0.375 C 13.6875 0.164062 12.335938 0.4375 10.921875 0.4375 C 9.242188 0.4375 7.585938 0.132812 5.953125 -0.46875 C 4.316406 -1.070312 2.921875 -2.109375 1.765625 -3.578125 L 4.859375 -6.234375 C 5.660156 -5.316406 6.566406 -4.597656 7.578125 -4.078125 C 8.597656 -3.566406 9.847656 -3.3125 11.328125 -3.3125 C 11.890625 -3.3125 12.445312 -3.40625 13 -3.59375 C 13.5625 -3.789062 14.039062 -4.101562 14.4375 -4.53125 C 14.84375 -4.957031 15.046875 -5.539062 15.046875 -6.28125 C 15.046875 -6.988281 14.828125 -7.539062 14.390625 -7.9375 C 13.960938 -8.332031 13.394531 -8.65625 12.6875 -8.90625 C 11.988281 -9.164062 11.207031 -9.394531 10.34375 -9.59375 C 9.082031 -9.945312 7.835938 -10.378906 6.609375 -10.890625 C 5.390625 -11.410156 4.375 -12.148438 3.5625 -13.109375 C 2.75 -14.066406 2.34375 -15.375 2.34375 -17.03125 C 2.34375 -18.414062 2.734375 -19.601562 3.515625 -20.59375 C 4.296875 -21.582031 5.320312 -22.347656 6.59375 -22.890625 C 7.863281 -23.429688 9.21875 -23.703125 10.65625 -23.703125 C 12.039062 -23.703125 13.546875 -23.40625 15.171875 -22.8125 C 16.796875 -22.226562 18.140625 -21.289062 19.203125 -20 Z M 16.59375 -17.125 "/></g></g></g><g fill="#001c53" fill-opacity="1"><g transform="translate(226.336661, 207.634877)"><g><path d="M 10.21875 0 L 10.21875 -26.359375 L 1.546875 -26.359375 L 1.546875 -30.96875 L 23.9375 -30.96875 L 23.9375 -26.359375 L 15 -26.359375 L 15 0 Z M 10.21875 0 "/></g></g></g><g fill="#001c53" fill-opacity="1"><g transform="translate(251.811173, 207.634877)"><g><path d="M 19.015625 -9.25 L 19.015625 -23.21875 L 23.578125 -23.21875 L 23.578125 0 L 19.015625 0 L 19.015625 -3.71875 C 18.335938 -2.625 17.34375 -1.65625 16.03125 -0.8125 C 14.71875 0.0195312 13.148438 0.4375 11.328125 0.4375 C 8.910156 0.4375 6.945312 -0.382812 5.4375 -2.03125 C 3.9375 -3.6875 3.1875 -5.972656 3.1875 -8.890625 L 3.1875 -23.21875 L 7.734375 -23.21875 L 7.734375 -10.125 C 7.734375 -8.945312 7.914062 -7.859375 8.28125 -6.859375 C 8.65625 -5.859375 9.25 -5.050781 10.0625 -4.4375 C 10.875 -3.832031 11.914062 -3.53125 13.1875 -3.53125 C 14.78125 -3.53125 16.148438 -4.03125 17.296875 -5.03125 C 18.441406 -6.039062 19.015625 -7.445312 19.015625 -9.25 Z M 19.015625 -9.25 "/></g></g></g><g fill="#001c53" fill-opacity="1"><g transform="translate(278.568259, 207.634877)"><g><path d="M 10.609375 0 L 6.0625 0 L 6.0625 -18.796875 L 1.234375 -18.796875 L 1.234375 -23.21875 L 6.0625 -23.21875 L 6.0625 -29.15625 L 10.609375 -29.15625 L 10.609375 -23.21875 L 16.015625 -23.21875 L 16.015625 -18.796875 L 10.609375 -18.796875 Z M 10.609375 0 "/></g></g></g><g fill="#001c53" fill-opacity="1"><g transform="translate(295.551266, 207.634877)"><g><path d="M 25.4375 -11.640625 C 25.4375 -9.273438 24.910156 -7.1875 23.859375 -5.375 C 22.816406 -3.5625 21.398438 -2.140625 19.609375 -1.109375 C 17.828125 -0.078125 15.832031 0.4375 13.625 0.4375 C 11.414062 0.4375 9.410156 -0.078125 7.609375 -1.109375 C 5.804688 -2.140625 4.378906 -3.5625 3.328125 -5.375 C 2.285156 -7.1875 1.765625 -9.273438 1.765625 -11.640625 C 1.765625 -13.992188 2.285156 -16.078125 3.328125 -17.890625 C 4.378906 -19.703125 5.804688 -21.125 7.609375 -22.15625 C 9.410156 -23.1875 11.414062 -23.703125 13.625 -23.703125 C 15.832031 -23.703125 17.828125 -23.1875 19.609375 -22.15625 C 21.398438 -21.125 22.816406 -19.703125 23.859375 -17.890625 C 24.910156 -16.078125 25.4375 -13.992188 25.4375 -11.640625 Z M 20.796875 -11.640625 C 20.816406 -13.203125 20.507812 -14.578125 19.875 -15.765625 C 19.25 -16.960938 18.390625 -17.890625 17.296875 -18.546875 C 16.203125 -19.210938 14.976562 -19.546875 13.625 -19.546875 C 12.269531 -19.546875 11.035156 -19.210938 9.921875 -18.546875 C 8.816406 -17.890625 7.945312 -16.960938 7.3125 -15.765625 C 6.6875 -14.578125 6.382812 -13.203125 6.40625 -11.640625 C 6.382812 -10.097656 6.6875 -8.726562 7.3125 -7.53125 C 7.945312 -6.34375 8.816406 -5.410156 9.921875 -4.734375 C 11.035156 -4.054688 12.269531 -3.71875 13.625 -3.71875 C 14.976562 -3.71875 16.203125 -4.054688 17.296875 -4.734375 C 18.390625 -5.410156 19.25 -6.34375 19.875 -7.53125 C 20.507812 -8.726562 20.816406 -10.097656 20.796875 -11.640625 Z M 20.796875 -11.640625 "/></g></g></g><g fill="#001c53" fill-opacity="1"><g transform="translate(322.75062, 207.634877)"><g><path d="M 16.1875 -18.3125 C 15.894531 -18.457031 15.535156 -18.582031 15.109375 -18.6875 C 14.679688 -18.789062 14.226562 -18.84375 13.75 -18.84375 C 12.8125 -18.84375 11.882812 -18.597656 10.96875 -18.109375 C 10.050781 -17.628906 9.289062 -16.9375 8.6875 -16.03125 C 8.082031 -15.132812 7.78125 -14.066406 7.78125 -12.828125 L 7.78125 0 L 3.1875 0 L 3.1875 -23.21875 L 7.78125 -23.21875 L 7.78125 -18.84375 C 8.4375 -20.257812 9.414062 -21.421875 10.71875 -22.328125 C 12.03125 -23.242188 13.410156 -23.703125 14.859375 -23.703125 C 15.953125 -23.703125 16.796875 -23.554688 17.390625 -23.265625 Z M 16.1875 -18.3125 "/></g></g></g><g fill="#001c53" fill-opacity="1"><g transform="translate(340.573945, 207.634877)"><g><path d="M 6.234375 -28.265625 C 5.203125 -28.265625 4.4375 -28.53125 3.9375 -29.0625 C 3.4375 -29.59375 3.1875 -30.285156 3.1875 -31.140625 C 3.1875 -31.878906 3.4375 -32.539062 3.9375 -33.125 C 4.4375 -33.71875 5.203125 -34.015625 6.234375 -34.015625 C 7.265625 -34.015625 8.03125 -33.75 8.53125 -33.21875 C 9.03125 -32.6875 9.28125 -31.992188 9.28125 -31.140625 C 9.28125 -30.410156 9.03125 -29.75 8.53125 -29.15625 C 8.03125 -28.5625 7.265625 -28.265625 6.234375 -28.265625 Z M 8.578125 0 L 4.03125 0 L 4.03125 -23.21875 L 8.578125 -23.21875 Z M 8.578125 0 "/></g></g></g><g fill="#001c53" fill-opacity="1"><g transform="translate(352.868927, 207.634877)"><g><path d="M 15.34375 -23.703125 C 17.4375 -23.703125 19.054688 -23.273438 20.203125 -22.421875 C 21.359375 -21.566406 22.164062 -20.414062 22.625 -18.96875 C 23.082031 -17.53125 23.3125 -15.925781 23.3125 -14.15625 L 23.3125 0 L 18.75 0 L 18.75 -13.84375 C 18.75 -14.96875 18.601562 -15.972656 18.3125 -16.859375 C 18.019531 -17.742188 17.519531 -18.4375 16.8125 -18.9375 C 16.101562 -19.4375 15.113281 -19.640625 13.84375 -19.546875 C 12.664062 -19.546875 11.617188 -19.296875 10.703125 -18.796875 C 9.785156 -18.296875 9.0625 -17.632812 8.53125 -16.8125 C 8 -15.988281 7.734375 -15.070312 7.734375 -14.0625 L 7.734375 0 L 3.1875 0 L 3.1875 -23.21875 L 7.734375 -23.21875 L 7.734375 -19.546875 C 8.441406 -20.640625 9.472656 -21.601562 10.828125 -22.4375 C 12.191406 -23.28125 13.695312 -23.703125 15.34375 -23.703125 Z M 15.34375 -23.703125 "/></g></g></g><g fill="#001c53" fill-opacity="1"><g transform="translate(379.183744, 207.634877)"><g><path d="M 6.375 3.84375 C 7.257812 4.519531 8.363281 5.066406 9.6875 5.484375 C 11.007812 5.898438 12.304688 6.109375 13.578125 6.109375 C 15.960938 6.109375 17.789062 5.523438 19.0625 4.359375 C 20.332031 3.191406 20.96875 1.441406 20.96875 -0.890625 L 20.96875 -3.71875 C 20.550781 -3.007812 19.957031 -2.335938 19.1875 -1.703125 C 18.425781 -1.066406 17.53125 -0.550781 16.5 -0.15625 C 15.46875 0.238281 14.390625 0.4375 13.265625 0.4375 C 11.117188 0.4375 9.175781 -0.078125 7.4375 -1.109375 C 5.695312 -2.140625 4.316406 -3.566406 3.296875 -5.390625 C 2.273438 -7.222656 1.765625 -9.304688 1.765625 -11.640625 C 1.765625 -13.992188 2.265625 -16.078125 3.265625 -17.890625 C 4.273438 -19.703125 5.640625 -21.125 7.359375 -22.15625 C 9.085938 -23.1875 11.015625 -23.703125 13.140625 -23.703125 C 14.910156 -23.703125 16.476562 -23.3125 17.84375 -22.53125 C 19.21875 -21.75 20.257812 -20.90625 20.96875 -20 L 20.96875 -23.21875 L 25.515625 -23.21875 L 25.515625 -1.421875 C 25.515625 1.359375 24.960938 3.59375 23.859375 5.28125 C 22.753906 6.976562 21.296875 8.21875 19.484375 9 C 17.671875 9.78125 15.703125 10.171875 13.578125 10.171875 C 11.929688 10.171875 10.285156 9.910156 8.640625 9.390625 C 7.003906 8.878906 5.6875 8.210938 4.6875 7.390625 Z M 13.75 -19.546875 C 12.34375 -19.546875 11.082031 -19.195312 9.96875 -18.5 C 8.863281 -17.8125 7.992188 -16.867188 7.359375 -15.671875 C 6.722656 -14.484375 6.40625 -13.140625 6.40625 -11.640625 C 6.40625 -10.128906 6.722656 -8.785156 7.359375 -7.609375 C 7.992188 -6.429688 8.863281 -5.492188 9.96875 -4.796875 C 11.082031 -4.109375 12.34375 -3.765625 13.75 -3.765625 C 15.226562 -3.765625 16.519531 -4.101562 17.625 -4.78125 C 18.726562 -5.457031 19.585938 -6.390625 20.203125 -7.578125 C 20.828125 -8.773438 21.140625 -10.128906 21.140625 -11.640625 C 21.140625 -13.171875 20.828125 -14.523438 20.203125 -15.703125 C 19.585938 -16.878906 18.726562 -17.8125 17.625 -18.5 C 16.519531 -19.195312 15.226562 -19.546875 13.75 -19.546875 Z M 13.75 -19.546875 "/></g></g></g><g fill="#ffa500" fill-opacity="1"><g transform="translate(113.435186, 286.081355)"><g><path d="M 10.4375 -11.21875 L 10.4375 -4.296875 C 10.4375 -3.460938 10.238281 -2.710938 9.84375 -2.046875 C 9.457031 -1.378906 8.925781 -0.851562 8.25 -0.46875 C 7.570312 -0.09375 6.796875 0.09375 5.921875 0.09375 C 5.054688 0.09375 4.28125 -0.09375 3.59375 -0.46875 C 2.914062 -0.851562 2.378906 -1.378906 1.984375 -2.046875 C 1.597656 -2.710938 1.40625 -3.460938 1.40625 -4.296875 L 1.40625 -11.21875 L 3.140625 -11.21875 L 3.140625 -4.453125 C 3.140625 -3.890625 3.269531 -3.390625 3.53125 -2.953125 C 3.789062 -2.515625 4.132812 -2.171875 4.5625 -1.921875 C 4.988281 -1.679688 5.441406 -1.5625 5.921875 -1.5625 C 6.429688 -1.5625 6.90625 -1.679688 7.34375 -1.921875 C 7.78125 -2.171875 8.128906 -2.515625 8.390625 -2.953125 C 8.648438 -3.390625 8.78125 -3.890625 8.78125 -4.453125 L 8.78125 -11.21875 Z M 10.4375 -11.21875 "/></g></g></g><g fill="#ffa500" fill-opacity="1"><g transform="translate(125.272347, 286.081355)"><g><path d="M 11.0625 -11.203125 L 6.546875 0 L 4.859375 0 L 0.390625 -11.203125 L 2.359375 -11.203125 L 5.03125 -4.40625 C 5.164062 -4.039062 5.296875 -3.679688 5.421875 -3.328125 C 5.554688 -2.972656 5.6875 -2.613281 5.8125 -2.25 C 5.925781 -2.613281 6.046875 -2.972656 6.171875 -3.328125 C 6.304688 -3.691406 6.4375 -4.050781 6.5625 -4.40625 L 9.046875 -11.203125 Z M 11.0625 -11.203125 "/></g></g></g><g fill="#ffa500" fill-opacity="1"><g transform="translate(136.709595, 286.081355)"><g><path d="M 8.953125 0 L 7.90625 -2.78125 L 3.21875 -2.78125 L 2.15625 0 L 0.40625 0 L 4.734375 -11.203125 L 6.5 -11.203125 L 10.796875 0 Z M 4.703125 -6.6875 L 3.859375 -4.453125 L 7.28125 -4.453125 L 6.40625 -6.75 C 6.257812 -7.125 6.117188 -7.523438 5.984375 -7.953125 C 5.847656 -8.390625 5.707031 -8.828125 5.5625 -9.265625 C 5.414062 -8.816406 5.269531 -8.367188 5.125 -7.921875 C 4.976562 -7.472656 4.835938 -7.0625 4.703125 -6.6875 Z M 4.703125 -6.6875 "/></g></g></g><g fill="#ffa500" fill-opacity="1"><g transform="translate(147.906905, 286.081355)"><g/></g></g><g fill="#ffa500" fill-opacity="1"><g transform="translate(152.385825, 286.081355)"><g><path d="M 6 -6.1875 C 5.695312 -6.488281 5.359375 -6.734375 4.984375 -6.921875 C 4.609375 -7.117188 4.257812 -7.21875 3.9375 -7.21875 C 3.707031 -7.21875 3.484375 -7.191406 3.265625 -7.140625 C 3.046875 -7.085938 2.863281 -6.988281 2.71875 -6.84375 C 2.570312 -6.695312 2.5 -6.484375 2.5 -6.203125 C 2.507812 -5.816406 2.679688 -5.546875 3.015625 -5.390625 C 3.347656 -5.234375 3.765625 -5.085938 4.265625 -4.953125 C 4.703125 -4.835938 5.128906 -4.691406 5.546875 -4.515625 C 5.960938 -4.335938 6.304688 -4.082031 6.578125 -3.75 C 6.847656 -3.414062 6.984375 -2.945312 6.984375 -2.34375 C 6.984375 -1.8125 6.835938 -1.359375 6.546875 -0.984375 C 6.253906 -0.617188 5.875 -0.335938 5.40625 -0.140625 C 4.945312 0.0546875 4.460938 0.15625 3.953125 0.15625 C 3.347656 0.15625 2.75 0.046875 2.15625 -0.171875 C 1.5625 -0.390625 1.054688 -0.765625 0.640625 -1.296875 L 1.765625 -2.25 C 2.046875 -1.925781 2.367188 -1.671875 2.734375 -1.484375 C 3.109375 -1.296875 3.5625 -1.203125 4.09375 -1.203125 C 4.300781 -1.203125 4.503906 -1.234375 4.703125 -1.296875 C 4.910156 -1.367188 5.082031 -1.484375 5.21875 -1.640625 C 5.363281 -1.796875 5.4375 -2.003906 5.4375 -2.265625 C 5.4375 -2.523438 5.359375 -2.726562 5.203125 -2.875 C 5.046875 -3.019531 4.835938 -3.132812 4.578125 -3.21875 C 4.328125 -3.3125 4.050781 -3.394531 3.75 -3.46875 C 3.289062 -3.59375 2.835938 -3.75 2.390625 -3.9375 C 1.953125 -4.125 1.582031 -4.390625 1.28125 -4.734375 C 0.988281 -5.085938 0.84375 -5.5625 0.84375 -6.15625 C 0.84375 -6.65625 0.984375 -7.082031 1.265625 -7.4375 C 1.554688 -7.800781 1.929688 -8.082031 2.390625 -8.28125 C 2.847656 -8.476562 3.335938 -8.578125 3.859375 -8.578125 C 4.359375 -8.578125 4.898438 -8.46875 5.484375 -8.25 C 6.078125 -8.039062 6.5625 -7.703125 6.9375 -7.234375 Z M 6 -6.1875 "/></g></g></g><g fill="#ffa500" fill-opacity="1"><g transform="translate(160.047987, 286.081355)"><g><path d="M 8.375 -1.109375 L 8.359375 -1.109375 C 8.015625 -0.773438 7.539062 -0.476562 6.9375 -0.21875 C 6.34375 0.03125 5.722656 0.15625 5.078125 0.15625 C 4.203125 0.15625 3.429688 -0.0234375 2.765625 -0.390625 C 2.097656 -0.753906 1.578125 -1.257812 1.203125 -1.90625 C 0.828125 -2.550781 0.640625 -3.285156 0.640625 -4.109375 C 0.640625 -5.046875 0.835938 -5.847656 1.234375 -6.515625 C 1.628906 -7.179688 2.148438 -7.691406 2.796875 -8.046875 C 3.453125 -8.410156 4.160156 -8.59375 4.921875 -8.59375 C 5.628906 -8.59375 6.269531 -8.414062 6.84375 -8.0625 C 7.425781 -7.71875 7.882812 -7.242188 8.21875 -6.640625 C 8.5625 -6.035156 8.734375 -5.328125 8.734375 -4.515625 L 8.71875 -3.8125 L 2.28125 -3.8125 C 2.382812 -3.050781 2.695312 -2.445312 3.21875 -2 C 3.75 -1.5625 4.421875 -1.34375 5.234375 -1.34375 C 5.816406 -1.34375 6.289062 -1.453125 6.65625 -1.671875 C 7.019531 -1.890625 7.316406 -2.097656 7.546875 -2.296875 Z M 4.921875 -7.078125 C 4.296875 -7.078125 3.75 -6.925781 3.28125 -6.625 C 2.8125 -6.332031 2.503906 -5.832031 2.359375 -5.125 L 7.0625 -5.125 L 7.0625 -5.234375 C 7.03125 -5.597656 6.910156 -5.914062 6.703125 -6.1875 C 6.492188 -6.46875 6.234375 -6.6875 5.921875 -6.84375 C 5.609375 -7 5.273438 -7.078125 4.921875 -7.078125 Z M 4.921875 -7.078125 "/></g></g></g><g fill="#ffa500" fill-opacity="1"><g transform="translate(169.421739, 286.081355)"><g><path d="M 5.859375 -6.625 C 5.753906 -6.675781 5.625 -6.71875 5.46875 -6.75 C 5.3125 -6.789062 5.144531 -6.8125 4.96875 -6.8125 C 4.632812 -6.8125 4.300781 -6.722656 3.96875 -6.546875 C 3.632812 -6.367188 3.359375 -6.117188 3.140625 -5.796875 C 2.921875 -5.472656 2.8125 -5.085938 2.8125 -4.640625 L 2.8125 0 L 1.15625 0 L 1.15625 -8.40625 L 2.8125 -8.40625 L 2.8125 -6.8125 C 3.050781 -7.320312 3.40625 -7.742188 3.875 -8.078125 C 4.351562 -8.410156 4.851562 -8.578125 5.375 -8.578125 C 5.769531 -8.578125 6.070312 -8.523438 6.28125 -8.421875 Z M 5.859375 -6.625 "/></g></g></g><g fill="#ffa500" fill-opacity="1"><g transform="translate(175.868195, 286.081355)"><g><path d="M 2.125 -8.40625 L 4.578125 -2.40625 L 7.125 -8.40625 L 8.8125 -8.40625 L 5.09375 0 L 3.90625 0 L 0.359375 -8.40625 Z M 2.125 -8.40625 "/></g></g></g><g fill="#ffa500" fill-opacity="1"><g transform="translate(185.033997, 286.081355)"><g><path d="M 2.265625 -10.21875 C 1.890625 -10.21875 1.609375 -10.3125 1.421875 -10.5 C 1.242188 -10.695312 1.15625 -10.953125 1.15625 -11.265625 C 1.15625 -11.523438 1.242188 -11.757812 1.421875 -11.96875 C 1.609375 -12.1875 1.890625 -12.296875 2.265625 -12.296875 C 2.628906 -12.296875 2.898438 -12.195312 3.078125 -12 C 3.265625 -11.8125 3.359375 -11.566406 3.359375 -11.265625 C 3.359375 -10.992188 3.265625 -10.75 3.078125 -10.53125 C 2.898438 -10.320312 2.628906 -10.21875 2.265625 -10.21875 Z M 3.09375 0 L 1.453125 0 L 1.453125 -8.40625 L 3.09375 -8.40625 Z M 3.09375 0 "/></g></g></g><g fill="#ffa500" fill-opacity="1"><g transform="translate(189.48093, 286.081355)"><g><path d="M 2.203125 -4.203125 C 2.203125 -3.648438 2.328125 -3.15625 2.578125 -2.71875 C 2.828125 -2.289062 3.15625 -1.953125 3.5625 -1.703125 C 3.976562 -1.453125 4.421875 -1.328125 4.890625 -1.328125 C 5.429688 -1.328125 5.894531 -1.460938 6.28125 -1.734375 C 6.675781 -2.015625 7 -2.304688 7.25 -2.609375 L 8.15625 -1.484375 C 7.957031 -1.203125 7.679688 -0.929688 7.328125 -0.671875 C 6.972656 -0.421875 6.570312 -0.21875 6.125 -0.0625 C 5.675781 0.0820312 5.207031 0.15625 4.71875 0.15625 C 3.945312 0.15625 3.253906 -0.03125 2.640625 -0.40625 C 2.023438 -0.789062 1.535156 -1.3125 1.171875 -1.96875 C 0.816406 -2.632812 0.640625 -3.378906 0.640625 -4.203125 C 0.640625 -5.035156 0.816406 -5.78125 1.171875 -6.4375 C 1.535156 -7.09375 2.023438 -7.613281 2.640625 -8 C 3.253906 -8.382812 3.945312 -8.578125 4.71875 -8.578125 C 5.5 -8.578125 6.191406 -8.414062 6.796875 -8.09375 C 7.410156 -7.78125 7.863281 -7.375 8.15625 -6.875 L 7.25 -5.765625 C 7 -6.117188 6.644531 -6.425781 6.1875 -6.6875 C 5.738281 -6.957031 5.300781 -7.09375 4.875 -7.09375 C 4.375 -7.09375 3.921875 -6.96875 3.515625 -6.71875 C 3.109375 -6.46875 2.785156 -6.125 2.546875 -5.6875 C 2.316406 -5.257812 2.203125 -4.765625 2.203125 -4.203125 Z M 2.203125 -4.203125 "/></g></g></g><g fill="#ffa500" fill-opacity="1"><g transform="translate(198.038878, 286.081355)"><g><path d="M 8.375 -1.109375 L 8.359375 -1.109375 C 8.015625 -0.773438 7.539062 -0.476562 6.9375 -0.21875 C 6.34375 0.03125 5.722656 0.15625 5.078125 0.15625 C 4.203125 0.15625 3.429688 -0.0234375 2.765625 -0.390625 C 2.097656 -0.753906 1.578125 -1.257812 1.203125 -1.90625 C 0.828125 -2.550781 0.640625 -3.285156 0.640625 -4.109375 C 0.640625 -5.046875 0.835938 -5.847656 1.234375 -6.515625 C 1.628906 -7.179688 2.148438 -7.691406 2.796875 -8.046875 C 3.453125 -8.410156 4.160156 -8.59375 4.921875 -8.59375 C 5.628906 -8.59375 6.269531 -8.414062 6.84375 -8.0625 C 7.425781 -7.71875 7.882812 -7.242188 8.21875 -6.640625 C 8.5625 -6.035156 8.734375 -5.328125 8.734375 -4.515625 L 8.71875 -3.8125 L 2.28125 -3.8125 C 2.382812 -3.050781 2.695312 -2.445312 3.21875 -2 C 3.75 -1.5625 4.421875 -1.34375 5.234375 -1.34375 C 5.816406 -1.34375 6.289062 -1.453125 6.65625 -1.671875 C 7.019531 -1.890625 7.316406 -2.097656 7.546875 -2.296875 Z M 4.921875 -7.078125 C 4.296875 -7.078125 3.75 -6.925781 3.28125 -6.625 C 2.8125 -6.332031 2.503906 -5.832031 2.359375 -5.125 L 7.0625 -5.125 L 7.0625 -5.234375 C 7.03125 -5.597656 6.910156 -5.914062 6.703125 -6.1875 C 6.492188 -6.46875 6.234375 -6.6875 5.921875 -6.84375 C 5.609375 -7 5.273438 -7.078125 4.921875 -7.078125 Z M 4.921875 -7.078125 "/></g></g></g><g fill="#ffa500" fill-opacity="1"><g transform="translate(207.41263, 286.081355)"><g/></g></g><g fill="#ffa500" fill-opacity="1"><g transform="translate(211.89155, 286.081355)"><g><path d="M 5.71875 -6.734375 L 3.734375 -6.734375 L 3.734375 0 L 2.0625 0 L 2.0625 -6.734375 L 0.71875 -6.734375 L 0.71875 -8.25 L 2.0625 -8.25 L 2.0625 -9.34375 C 2.0625 -10.070312 2.289062 -10.664062 2.75 -11.125 C 3.21875 -11.59375 3.820312 -11.828125 4.5625 -11.828125 C 4.988281 -11.828125 5.34375 -11.742188 5.625 -11.578125 C 5.90625 -11.421875 6.109375 -11.269531 6.234375 -11.125 L 5.6875 -9.859375 C 5.570312 -9.960938 5.429688 -10.054688 5.265625 -10.140625 C 5.097656 -10.234375 4.925781 -10.28125 4.75 -10.28125 C 4.363281 -10.28125 4.097656 -10.191406 3.953125 -10.015625 C 3.804688 -9.835938 3.734375 -9.613281 3.734375 -9.34375 L 3.734375 -8.25 L 5.71875 -8.25 Z M 5.71875 -6.734375 "/></g></g></g><g fill="#ffa500" fill-opacity="1"><g transform="translate(218.178041, 286.081355)"><g><path d="M 9.203125 -4.203125 C 9.203125 -3.347656 9.007812 -2.59375 8.625 -1.9375 C 8.25 -1.28125 7.738281 -0.765625 7.09375 -0.390625 C 6.445312 -0.0234375 5.722656 0.15625 4.921875 0.15625 C 4.128906 0.15625 3.40625 -0.0234375 2.75 -0.390625 C 2.101562 -0.765625 1.585938 -1.28125 1.203125 -1.9375 C 0.828125 -2.59375 0.640625 -3.347656 0.640625 -4.203125 C 0.640625 -5.054688 0.828125 -5.8125 1.203125 -6.46875 C 1.585938 -7.125 2.101562 -7.640625 2.75 -8.015625 C 3.40625 -8.390625 4.128906 -8.578125 4.921875 -8.578125 C 5.722656 -8.578125 6.445312 -8.390625 7.09375 -8.015625 C 7.738281 -7.640625 8.25 -7.125 8.625 -6.46875 C 9.007812 -5.8125 9.203125 -5.054688 9.203125 -4.203125 Z M 7.515625 -4.203125 C 7.523438 -4.773438 7.414062 -5.273438 7.1875 -5.703125 C 6.957031 -6.140625 6.644531 -6.476562 6.25 -6.71875 C 5.851562 -6.957031 5.410156 -7.078125 4.921875 -7.078125 C 4.429688 -7.078125 3.984375 -6.957031 3.578125 -6.71875 C 3.179688 -6.476562 2.867188 -6.140625 2.640625 -5.703125 C 2.410156 -5.273438 2.300781 -4.773438 2.3125 -4.203125 C 2.300781 -3.648438 2.410156 -3.15625 2.640625 -2.71875 C 2.867188 -2.289062 3.179688 -1.953125 3.578125 -1.703125 C 3.984375 -1.460938 4.429688 -1.34375 4.921875 -1.34375 C 5.410156 -1.34375 5.851562 -1.460938 6.25 -1.703125 C 6.644531 -1.953125 6.957031 -2.289062 7.1875 -2.71875 C 7.414062 -3.15625 7.523438 -3.648438 7.515625 -4.203125 Z M 7.515625 -4.203125 "/></g></g></g><g fill="#ffa500" fill-opacity="1"><g transform="translate(228.015679, 286.081355)"><g><path d="M 5.859375 -6.625 C 5.753906 -6.675781 5.625 -6.71875 5.46875 -6.75 C 5.3125 -6.789062 5.144531 -6.8125 4.96875 -6.8125 C 4.632812 -6.8125 4.300781 -6.722656 3.96875 -6.546875 C 3.632812 -6.367188 3.359375 -6.117188 3.140625 -5.796875 C 2.921875 -5.472656 2.8125 -5.085938 2.8125 -4.640625 L 2.8125 0 L 1.15625 0 L 1.15625 -8.40625 L 2.8125 -8.40625 L 2.8125 -6.8125 C 3.050781 -7.320312 3.40625 -7.742188 3.875 -8.078125 C 4.351562 -8.410156 4.851562 -8.578125 5.375 -8.578125 C 5.769531 -8.578125 6.070312 -8.523438 6.28125 -8.421875 Z M 5.859375 -6.625 "/></g></g></g><g fill="#ffa500" fill-opacity="1"><g transform="translate(234.462135, 286.081355)"><g/></g></g><g fill="#ffa500" fill-opacity="1"><g transform="translate(238.941055, 286.081355)"><g><path d="M 6 -6.1875 C 5.695312 -6.488281 5.359375 -6.734375 4.984375 -6.921875 C 4.609375 -7.117188 4.257812 -7.21875 3.9375 -7.21875 C 3.707031 -7.21875 3.484375 -7.191406 3.265625 -7.140625 C 3.046875 -7.085938 2.863281 -6.988281 2.71875 -6.84375 C 2.570312 -6.695312 2.5 -6.484375 2.5 -6.203125 C 2.507812 -5.816406 2.679688 -5.546875 3.015625 -5.390625 C 3.347656 -5.234375 3.765625 -5.085938 4.265625 -4.953125 C 4.703125 -4.835938 5.128906 -4.691406 5.546875 -4.515625 C 5.960938 -4.335938 6.304688 -4.082031 6.578125 -3.75 C 6.847656 -3.414062 6.984375 -2.945312 6.984375 -2.34375 C 6.984375 -1.8125 6.835938 -1.359375 6.546875 -0.984375 C 6.253906 -0.617188 5.875 -0.335938 5.40625 -0.140625 C 4.945312 0.0546875 4.460938 0.15625 3.953125 0.15625 C 3.347656 0.15625 2.75 0.046875 2.15625 -0.171875 C 1.5625 -0.390625 1.054688 -0.765625 0.640625 -1.296875 L 1.765625 -2.25 C 2.046875 -1.925781 2.367188 -1.671875 2.734375 -1.484375 C 3.109375 -1.296875 3.5625 -1.203125 4.09375 -1.203125 C 4.300781 -1.203125 4.503906 -1.234375 4.703125 -1.296875 C 4.910156 -1.367188 5.082031 -1.484375 5.21875 -1.640625 C 5.363281 -1.796875 5.4375 -2.003906 5.4375 -2.265625 C 5.4375 -2.523438 5.359375 -2.726562 5.203125 -2.875 C 5.046875 -3.019531 4.835938 -3.132812 4.578125 -3.21875 C 4.328125 -3.3125 4.050781 -3.394531 3.75 -3.46875 C 3.289062 -3.59375 2.835938 -3.75 2.390625 -3.9375 C 1.953125 -4.125 1.582031 -4.390625 1.28125 -4.734375 C 0.988281 -5.085938 0.84375 -5.5625 0.84375 -6.15625 C 0.84375 -6.65625 0.984375 -7.082031 1.265625 -7.4375 C 1.554688 -7.800781 1.929688 -8.082031 2.390625 -8.28125 C 2.847656 -8.476562 3.335938 -8.578125 3.859375 -8.578125 C 4.359375 -8.578125 4.898438 -8.46875 5.484375 -8.25 C 6.078125 -8.039062 6.5625 -7.703125 6.9375 -7.234375 Z M 6 -6.1875 "/></g></g></g><g fill="#ffa500" fill-opacity="1"><g transform="translate(246.603217, 286.081355)"><g><path d="M 2.203125 -4.203125 C 2.203125 -3.648438 2.328125 -3.15625 2.578125 -2.71875 C 2.828125 -2.289062 3.15625 -1.953125 3.5625 -1.703125 C 3.976562 -1.453125 4.421875 -1.328125 4.890625 -1.328125 C 5.429688 -1.328125 5.894531 -1.460938 6.28125 -1.734375 C 6.675781 -2.015625 7 -2.304688 7.25 -2.609375 L 8.15625 -1.484375 C 7.957031 -1.203125 7.679688 -0.929688 7.328125 -0.671875 C 6.972656 -0.421875 6.570312 -0.21875 6.125 -0.0625 C 5.675781 0.0820312 5.207031 0.15625 4.71875 0.15625 C 3.945312 0.15625 3.253906 -0.03125 2.640625 -0.40625 C 2.023438 -0.789062 1.535156 -1.3125 1.171875 -1.96875 C 0.816406 -2.632812 0.640625 -3.378906 0.640625 -4.203125 C 0.640625 -5.035156 0.816406 -5.78125 1.171875 -6.4375 C 1.535156 -7.09375 2.023438 -7.613281 2.640625 -8 C 3.253906 -8.382812 3.945312 -8.578125 4.71875 -8.578125 C 5.5 -8.578125 6.191406 -8.414062 6.796875 -8.09375 C 7.410156 -7.78125 7.863281 -7.375 8.15625 -6.875 L 7.25 -5.765625 C 7 -6.117188 6.644531 -6.425781 6.1875 -6.6875 C 5.738281 -6.957031 5.300781 -7.09375 4.875 -7.09375 C 4.375 -7.09375 3.921875 -6.96875 3.515625 -6.71875 C 3.109375 -6.46875 2.785156 -6.125 2.546875 -5.6875 C 2.316406 -5.257812 2.203125 -4.765625 2.203125 -4.203125 Z M 2.203125 -4.203125 "/></g></g></g><g fill="#ffa500" fill-opacity="1"><g transform="translate(255.161166, 286.081355)"><g><path d="M 5.546875 -8.578125 C 6.304688 -8.578125 6.894531 -8.421875 7.3125 -8.109375 C 7.726562 -7.796875 8.019531 -7.378906 8.1875 -6.859375 C 8.351562 -6.335938 8.4375 -5.757812 8.4375 -5.125 L 8.4375 0 L 6.78125 0 L 6.78125 -5.015625 C 6.78125 -5.410156 6.726562 -5.769531 6.625 -6.09375 C 6.519531 -6.414062 6.335938 -6.664062 6.078125 -6.84375 C 5.828125 -7.03125 5.472656 -7.109375 5.015625 -7.078125 C 4.585938 -7.078125 4.207031 -6.984375 3.875 -6.796875 C 3.539062 -6.617188 3.273438 -6.378906 3.078125 -6.078125 C 2.890625 -5.773438 2.796875 -5.445312 2.796875 -5.09375 L 2.796875 0 L 1.15625 0 L 1.15625 -11.84375 L 2.796875 -11.84375 L 2.796875 -7.078125 C 3.054688 -7.460938 3.429688 -7.804688 3.921875 -8.109375 C 4.410156 -8.421875 4.953125 -8.578125 5.546875 -8.578125 Z M 5.546875 -8.578125 "/></g></g></g><g fill="#ffa500" fill-opacity="1"><g transform="translate(264.678884, 286.081355)"><g><path d="M 8.375 -1.109375 L 8.359375 -1.109375 C 8.015625 -0.773438 7.539062 -0.476562 6.9375 -0.21875 C 6.34375 0.03125 5.722656 0.15625 5.078125 0.15625 C 4.203125 0.15625 3.429688 -0.0234375 2.765625 -0.390625 C 2.097656 -0.753906 1.578125 -1.257812 1.203125 -1.90625 C 0.828125 -2.550781 0.640625 -3.285156 0.640625 -4.109375 C 0.640625 -5.046875 0.835938 -5.847656 1.234375 -6.515625 C 1.628906 -7.179688 2.148438 -7.691406 2.796875 -8.046875 C 3.453125 -8.410156 4.160156 -8.59375 4.921875 -8.59375 C 5.628906 -8.59375 6.269531 -8.414062 6.84375 -8.0625 C 7.425781 -7.71875 7.882812 -7.242188 8.21875 -6.640625 C 8.5625 -6.035156 8.734375 -5.328125 8.734375 -4.515625 L 8.71875 -3.8125 L 2.28125 -3.8125 C 2.382812 -3.050781 2.695312 -2.445312 3.21875 -2 C 3.75 -1.5625 4.421875 -1.34375 5.234375 -1.34375 C 5.816406 -1.34375 6.289062 -1.453125 6.65625 -1.671875 C 7.019531 -1.890625 7.316406 -2.097656 7.546875 -2.296875 Z M 4.921875 -7.078125 C 4.296875 -7.078125 3.75 -6.925781 3.28125 -6.625 C 2.8125 -6.332031 2.503906 -5.832031 2.359375 -5.125 L 7.0625 -5.125 L 7.0625 -5.234375 C 7.03125 -5.597656 6.910156 -5.914062 6.703125 -6.1875 C 6.492188 -6.46875 6.234375 -6.6875 5.921875 -6.84375 C 5.609375 -7 5.273438 -7.078125 4.921875 -7.078125 Z M 4.921875 -7.078125 "/></g></g></g><g fill="#ffa500" fill-opacity="1"><g transform="translate(274.052636, 286.081355)"><g><path d="M 9.03125 -11.84375 L 9.03125 0 L 7.375 0 L 7.375 -1.1875 C 7.132812 -0.851562 6.769531 -0.546875 6.28125 -0.265625 C 5.800781 0.015625 5.257812 0.15625 4.65625 0.15625 C 3.894531 0.15625 3.210938 -0.0234375 2.609375 -0.390625 C 2.003906 -0.765625 1.523438 -1.28125 1.171875 -1.9375 C 0.816406 -2.601562 0.640625 -3.359375 0.640625 -4.203125 C 0.640625 -5.054688 0.816406 -5.8125 1.171875 -6.46875 C 1.523438 -7.125 2 -7.640625 2.59375 -8.015625 C 3.1875 -8.390625 3.859375 -8.578125 4.609375 -8.578125 C 5.203125 -8.578125 5.738281 -8.453125 6.21875 -8.203125 C 6.707031 -7.960938 7.09375 -7.675781 7.375 -7.34375 L 7.375 -11.84375 Z M 4.875 -1.265625 C 5.382812 -1.265625 5.832031 -1.390625 6.21875 -1.640625 C 6.601562 -1.898438 6.898438 -2.253906 7.109375 -2.703125 C 7.328125 -3.148438 7.4375 -3.648438 7.4375 -4.203125 C 7.4375 -4.773438 7.328125 -5.28125 7.109375 -5.71875 C 6.898438 -6.164062 6.601562 -6.515625 6.21875 -6.765625 C 5.832031 -7.023438 5.382812 -7.15625 4.875 -7.15625 C 4.375 -7.15625 3.929688 -7.023438 3.546875 -6.765625 C 3.160156 -6.515625 2.859375 -6.164062 2.640625 -5.71875 C 2.421875 -5.28125 2.3125 -4.773438 2.3125 -4.203125 C 2.3125 -3.648438 2.421875 -3.148438 2.640625 -2.703125 C 2.859375 -2.253906 3.160156 -1.898438 3.546875 -1.640625 C 3.929688 -1.390625 4.375 -1.265625 4.875 -1.265625 Z M 4.875 -1.265625 "/></g></g></g><g fill="#ffa500" fill-opacity="1"><g transform="translate(284.194195, 286.081355)"><g><path d="M 6.875 -3.34375 L 6.875 -8.40625 L 8.53125 -8.40625 L 8.53125 0 L 6.875 0 L 6.875 -1.34375 C 6.632812 -0.945312 6.273438 -0.597656 5.796875 -0.296875 C 5.328125 0.00390625 4.757812 0.15625 4.09375 0.15625 C 3.21875 0.15625 2.507812 -0.140625 1.96875 -0.734375 C 1.425781 -1.328125 1.15625 -2.15625 1.15625 -3.21875 L 1.15625 -8.40625 L 2.796875 -8.40625 L 2.796875 -3.65625 C 2.796875 -3.238281 2.863281 -2.847656 3 -2.484375 C 3.132812 -2.117188 3.347656 -1.828125 3.640625 -1.609375 C 3.929688 -1.390625 4.304688 -1.28125 4.765625 -1.28125 C 5.335938 -1.28125 5.832031 -1.460938 6.25 -1.828125 C 6.664062 -2.191406 6.875 -2.695312 6.875 -3.34375 Z M 6.875 -3.34375 "/></g></g></g><g fill="#ffa500" fill-opacity="1"><g transform="translate(293.871867, 286.081355)"><g><path d="M 1.15625 0 L 1.15625 -11.84375 L 2.796875 -11.84375 L 2.796875 0 Z M 1.15625 0 "/></g></g></g><g fill="#ffa500" fill-opacity="1"><g transform="translate(297.870902, 286.081355)"><g><path d="M 8.375 -1.109375 L 8.359375 -1.109375 C 8.015625 -0.773438 7.539062 -0.476562 6.9375 -0.21875 C 6.34375 0.03125 5.722656 0.15625 5.078125 0.15625 C 4.203125 0.15625 3.429688 -0.0234375 2.765625 -0.390625 C 2.097656 -0.753906 1.578125 -1.257812 1.203125 -1.90625 C 0.828125 -2.550781 0.640625 -3.285156 0.640625 -4.109375 C 0.640625 -5.046875 0.835938 -5.847656 1.234375 -6.515625 C 1.628906 -7.179688 2.148438 -7.691406 2.796875 -8.046875 C 3.453125 -8.410156 4.160156 -8.59375 4.921875 -8.59375 C 5.628906 -8.59375 6.269531 -8.414062 6.84375 -8.0625 C 7.425781 -7.71875 7.882812 -7.242188 8.21875 -6.640625 C 8.5625 -6.035156 8.734375 -5.328125 8.734375 -4.515625 L 8.71875 -3.8125 L 2.28125 -3.8125 C 2.382812 -3.050781 2.695312 -2.445312 3.21875 -2 C 3.75 -1.5625 4.421875 -1.34375 5.234375 -1.34375 C 5.816406 -1.34375 6.289062 -1.453125 6.65625 -1.671875 C 7.019531 -1.890625 7.316406 -2.097656 7.546875 -2.296875 Z M 4.921875 -7.078125 C 4.296875 -7.078125 3.75 -6.925781 3.28125 -6.625 C 2.8125 -6.332031 2.503906 -5.832031 2.359375 -5.125 L 7.0625 -5.125 L 7.0625 -5.234375 C 7.03125 -5.597656 6.910156 -5.914062 6.703125 -6.1875 C 6.492188 -6.46875 6.234375 -6.6875 5.921875 -6.84375 C 5.609375 -7 5.273438 -7.078125 4.921875 -7.078125 Z M 4.921875 -7.078125 "/></g></g></g><g fill="#ffa500" fill-opacity="1"><g transform="translate(307.244665, 286.081355)"><g><path d="M 9.03125 -11.84375 L 9.03125 0 L 7.375 0 L 7.375 -1.1875 C 7.132812 -0.851562 6.769531 -0.546875 6.28125 -0.265625 C 5.800781 0.015625 5.257812 0.15625 4.65625 0.15625 C 3.894531 0.15625 3.210938 -0.0234375 2.609375 -0.390625 C 2.003906 -0.765625 1.523438 -1.28125 1.171875 -1.9375 C 0.816406 -2.601562 0.640625 -3.359375 0.640625 -4.203125 C 0.640625 -5.054688 0.816406 -5.8125 1.171875 -6.46875 C 1.523438 -7.125 2 -7.640625 2.59375 -8.015625 C 3.1875 -8.390625 3.859375 -8.578125 4.609375 -8.578125 C 5.203125 -8.578125 5.738281 -8.453125 6.21875 -8.203125 C 6.707031 -7.960938 7.09375 -7.675781 7.375 -7.34375 L 7.375 -11.84375 Z M 4.875 -1.265625 C 5.382812 -1.265625 5.832031 -1.390625 6.21875 -1.640625 C 6.601562 -1.898438 6.898438 -2.253906 7.109375 -2.703125 C 7.328125 -3.148438 7.4375 -3.648438 7.4375 -4.203125 C 7.4375 -4.773438 7.328125 -5.28125 7.109375 -5.71875 C 6.898438 -6.164062 6.601562 -6.515625 6.21875 -6.765625 C 5.832031 -7.023438 5.382812 -7.15625 4.875 -7.15625 C 4.375 -7.15625 3.929688 -7.023438 3.546875 -6.765625 C 3.160156 -6.515625 2.859375 -6.164062 2.640625 -5.71875 C 2.421875 -5.28125 2.3125 -4.773438 2.3125 -4.203125 C 2.3125 -3.648438 2.421875 -3.148438 2.640625 -2.703125 C 2.859375 -2.253906 3.160156 -1.898438 3.546875 -1.640625 C 3.929688 -1.390625 4.375 -1.265625 4.875 -1.265625 Z M 4.875 -1.265625 "/></g></g></g><g fill="#ffa500" fill-opacity="1"><g transform="translate(317.386236, 286.081355)"><g/></g></g><g fill="#ffa500" fill-opacity="1"><g transform="translate(321.865155, 286.081355)"><g><path d="M 9.203125 -4.203125 C 9.203125 -3.347656 9.007812 -2.59375 8.625 -1.9375 C 8.25 -1.28125 7.738281 -0.765625 7.09375 -0.390625 C 6.445312 -0.0234375 5.722656 0.15625 4.921875 0.15625 C 4.128906 0.15625 3.40625 -0.0234375 2.75 -0.390625 C 2.101562 -0.765625 1.585938 -1.28125 1.203125 -1.9375 C 0.828125 -2.59375 0.640625 -3.347656 0.640625 -4.203125 C 0.640625 -5.054688 0.828125 -5.8125 1.203125 -6.46875 C 1.585938 -7.125 2.101562 -7.640625 2.75 -8.015625 C 3.40625 -8.390625 4.128906 -8.578125 4.921875 -8.578125 C 5.722656 -8.578125 6.445312 -8.390625 7.09375 -8.015625 C 7.738281 -7.640625 8.25 -7.125 8.625 -6.46875 C 9.007812 -5.8125 9.203125 -5.054688 9.203125 -4.203125 Z M 7.515625 -4.203125 C 7.523438 -4.773438 7.414062 -5.273438 7.1875 -5.703125 C 6.957031 -6.140625 6.644531 -6.476562 6.25 -6.71875 C 5.851562 -6.957031 5.410156 -7.078125 4.921875 -7.078125 C 4.429688 -7.078125 3.984375 -6.957031 3.578125 -6.71875 C 3.179688 -6.476562 2.867188 -6.140625 2.640625 -5.703125 C 2.410156 -5.273438 2.300781 -4.773438 2.3125 -4.203125 C 2.300781 -3.648438 2.410156 -3.15625 2.640625 -2.71875 C 2.867188 -2.289062 3.179688 -1.953125 3.578125 -1.703125 C 3.984375 -1.460938 4.429688 -1.34375 4.921875 -1.34375 C 5.410156 -1.34375 5.851562 -1.460938 6.25 -1.703125 C 6.644531 -1.953125 6.957031 -2.289062 7.1875 -2.71875 C 7.414062 -3.15625 7.523438 -3.648438 7.515625 -4.203125 Z M 7.515625 -4.203125 "/></g></g></g><g fill="#ffa500" fill-opacity="1"><g transform="translate(331.702793, 286.081355)"><g><path d="M 5.546875 -8.578125 C 6.304688 -8.578125 6.894531 -8.421875 7.3125 -8.109375 C 7.726562 -7.796875 8.019531 -7.378906 8.1875 -6.859375 C 8.351562 -6.335938 8.4375 -5.757812 8.4375 -5.125 L 8.4375 0 L 6.78125 0 L 6.78125 -5.015625 C 6.78125 -5.410156 6.726562 -5.769531 6.625 -6.09375 C 6.519531 -6.414062 6.335938 -6.664062 6.078125 -6.84375 C 5.828125 -7.03125 5.472656 -7.109375 5.015625 -7.078125 C 4.585938 -7.078125 4.207031 -6.984375 3.875 -6.796875 C 3.539062 -6.617188 3.273438 -6.378906 3.078125 -6.078125 C 2.890625 -5.773438 2.796875 -5.445312 2.796875 -5.09375 L 2.796875 0 L 1.15625 0 L 1.15625 -8.40625 L 2.796875 -8.40625 L 2.796875 -7.078125 C 3.054688 -7.460938 3.429688 -7.804688 3.921875 -8.109375 C 4.410156 -8.421875 4.953125 -8.578125 5.546875 -8.578125 Z M 5.546875 -8.578125 "/></g></g></g><g fill="#ffa500" fill-opacity="1"><g transform="translate(341.220523, 286.081355)"><g><path d="M 0.84375 -3.765625 L 0.84375 -5.390625 L 5.453125 -5.390625 L 5.453125 -3.765625 Z M 0.84375 -3.765625 "/></g></g></g><g fill="#ffa500" fill-opacity="1"><g transform="translate(347.523013, 286.081355)"><g><path d="M 9.03125 -11.84375 L 9.03125 0 L 7.375 0 L 7.375 -1.1875 C 7.132812 -0.851562 6.769531 -0.546875 6.28125 -0.265625 C 5.800781 0.015625 5.257812 0.15625 4.65625 0.15625 C 3.894531 0.15625 3.210938 -0.0234375 2.609375 -0.390625 C 2.003906 -0.765625 1.523438 -1.28125 1.171875 -1.9375 C 0.816406 -2.601562 0.640625 -3.359375 0.640625 -4.203125 C 0.640625 -5.054688 0.816406 -5.8125 1.171875 -6.46875 C 1.523438 -7.125 2 -7.640625 2.59375 -8.015625 C 3.1875 -8.390625 3.859375 -8.578125 4.609375 -8.578125 C 5.203125 -8.578125 5.738281 -8.453125 6.21875 -8.203125 C 6.707031 -7.960938 7.09375 -7.675781 7.375 -7.34375 L 7.375 -11.84375 Z M 4.875 -1.265625 C 5.382812 -1.265625 5.832031 -1.390625 6.21875 -1.640625 C 6.601562 -1.898438 6.898438 -2.253906 7.109375 -2.703125 C 7.328125 -3.148438 7.4375 -3.648438 7.4375 -4.203125 C 7.4375 -4.773438 7.328125 -5.28125 7.109375 -5.71875 C 6.898438 -6.164062 6.601562 -6.515625 6.21875 -6.765625 C 5.832031 -7.023438 5.382812 -7.15625 4.875 -7.15625 C 4.375 -7.15625 3.929688 -7.023438 3.546875 -6.765625 C 3.160156 -6.515625 2.859375 -6.164062 2.640625 -5.71875 C 2.421875 -5.28125 2.3125 -4.773438 2.3125 -4.203125 C 2.3125 -3.648438 2.421875 -3.148438 2.640625 -2.703125 C 2.859375 -2.253906 3.160156 -1.898438 3.546875 -1.640625 C 3.929688 -1.390625 4.375 -1.265625 4.875 -1.265625 Z M 4.875 -1.265625 "/></g></g></g><g fill="#ffa500" fill-opacity="1"><g transform="translate(357.664583, 286.081355)"><g><path d="M 8.375 -1.109375 L 8.359375 -1.109375 C 8.015625 -0.773438 7.539062 -0.476562 6.9375 -0.21875 C 6.34375 0.03125 5.722656 0.15625 5.078125 0.15625 C 4.203125 0.15625 3.429688 -0.0234375 2.765625 -0.390625 C 2.097656 -0.753906 1.578125 -1.257812 1.203125 -1.90625 C 0.828125 -2.550781 0.640625 -3.285156 0.640625 -4.109375 C 0.640625 -5.046875 0.835938 -5.847656 1.234375 -6.515625 C 1.628906 -7.179688 2.148438 -7.691406 2.796875 -8.046875 C 3.453125 -8.410156 4.160156 -8.59375 4.921875 -8.59375 C 5.628906 -8.59375 6.269531 -8.414062 6.84375 -8.0625 C 7.425781 -7.71875 7.882812 -7.242188 8.21875 -6.640625 C 8.5625 -6.035156 8.734375 -5.328125 8.734375 -4.515625 L 8.71875 -3.8125 L 2.28125 -3.8125 C 2.382812 -3.050781 2.695312 -2.445312 3.21875 -2 C 3.75 -1.5625 4.421875 -1.34375 5.234375 -1.34375 C 5.816406 -1.34375 6.289062 -1.453125 6.65625 -1.671875 C 7.019531 -1.890625 7.316406 -2.097656 7.546875 -2.296875 Z M 4.921875 -7.078125 C 4.296875 -7.078125 3.75 -6.925781 3.28125 -6.625 C 2.8125 -6.332031 2.503906 -5.832031 2.359375 -5.125 L 7.0625 -5.125 L 7.0625 -5.234375 C 7.03125 -5.597656 6.910156 -5.914062 6.703125 -6.1875 C 6.492188 -6.46875 6.234375 -6.6875 5.921875 -6.84375 C 5.609375 -7 5.273438 -7.078125 4.921875 -7.078125 Z M 4.921875 -7.078125 "/></g></g></g><g fill="#ffa500" fill-opacity="1"><g transform="translate(367.038347, 286.081355)"><g><path d="M 5.421875 -8.546875 C 6.117188 -8.546875 6.675781 -8.382812 7.09375 -8.0625 C 7.507812 -7.75 7.804688 -7.320312 7.984375 -6.78125 C 8.128906 -7.050781 8.347656 -7.320312 8.640625 -7.59375 C 8.929688 -7.863281 9.265625 -8.085938 9.640625 -8.265625 C 10.023438 -8.453125 10.4375 -8.546875 10.875 -8.546875 C 11.601562 -8.546875 12.171875 -8.382812 12.578125 -8.0625 C 12.984375 -7.75 13.269531 -7.328125 13.4375 -6.796875 C 13.601562 -6.273438 13.6875 -5.691406 13.6875 -5.046875 L 13.6875 0 L 12.015625 0 L 12.015625 -4.9375 C 12.015625 -5.5625 11.894531 -6.066406 11.65625 -6.453125 C 11.425781 -6.835938 10.988281 -7.03125 10.34375 -7.03125 C 9.71875 -7.03125 9.203125 -6.832031 8.796875 -6.4375 C 8.398438 -6.050781 8.203125 -5.582031 8.203125 -5.03125 L 8.203125 0 L 6.546875 0 L 6.546875 -4.96875 C 6.546875 -5.570312 6.414062 -6.066406 6.15625 -6.453125 C 5.90625 -6.835938 5.484375 -7.03125 4.890625 -7.03125 C 4.484375 -7.03125 4.117188 -6.9375 3.796875 -6.75 C 3.484375 -6.570312 3.234375 -6.332031 3.046875 -6.03125 C 2.867188 -5.738281 2.78125 -5.414062 2.78125 -5.0625 L 2.78125 0 L 1.125 0 L 1.125 -8.40625 L 2.78125 -8.40625 L 2.78125 -7.0625 C 3.039062 -7.4375 3.398438 -7.773438 3.859375 -8.078125 C 4.328125 -8.390625 4.847656 -8.546875 5.421875 -8.546875 Z M 5.421875 -8.546875 "/></g></g></g><g fill="#ffa500" fill-opacity="1"><g transform="translate(381.770805, 286.081355)"><g><path d="M 8.96875 -8.40625 L 8.96875 0 L 7.3125 0 L 7.3125 -1.296875 C 7.050781 -0.941406 6.671875 -0.609375 6.171875 -0.296875 C 5.671875 0.00390625 5.09375 0.15625 4.4375 0.15625 C 3.726562 0.15625 3.082031 -0.0234375 2.5 -0.390625 C 1.914062 -0.765625 1.453125 -1.28125 1.109375 -1.9375 C 0.773438 -2.601562 0.609375 -3.363281 0.609375 -4.21875 C 0.609375 -5.070312 0.78125 -5.828125 1.125 -6.484375 C 1.476562 -7.140625 1.960938 -7.648438 2.578125 -8.015625 C 3.203125 -8.390625 3.910156 -8.578125 4.703125 -8.578125 C 5.285156 -8.578125 5.796875 -8.445312 6.234375 -8.1875 C 6.679688 -7.9375 7.039062 -7.640625 7.3125 -7.296875 L 7.3125 -8.40625 Z M 4.8125 -1.359375 C 5.320312 -1.359375 5.769531 -1.484375 6.15625 -1.734375 C 6.539062 -1.984375 6.835938 -2.320312 7.046875 -2.75 C 7.265625 -3.1875 7.375 -3.675781 7.375 -4.21875 C 7.375 -4.757812 7.265625 -5.238281 7.046875 -5.65625 C 6.835938 -6.082031 6.539062 -6.421875 6.15625 -6.671875 C 5.769531 -6.929688 5.320312 -7.0625 4.8125 -7.0625 C 4.320312 -7.0625 3.882812 -6.9375 3.5 -6.6875 C 3.113281 -6.4375 2.8125 -6.097656 2.59375 -5.671875 C 2.382812 -5.253906 2.28125 -4.769531 2.28125 -4.21875 C 2.28125 -3.675781 2.382812 -3.1875 2.59375 -2.75 C 2.8125 -2.320312 3.113281 -1.984375 3.5 -1.734375 C 3.882812 -1.484375 4.320312 -1.359375 4.8125 -1.359375 Z M 4.8125 -1.359375 "/></g></g></g><g fill="#ffa500" fill-opacity="1"><g transform="translate(391.896377, 286.081355)"><g><path d="M 5.546875 -8.578125 C 6.304688 -8.578125 6.894531 -8.421875 7.3125 -8.109375 C 7.726562 -7.796875 8.019531 -7.378906 8.1875 -6.859375 C 8.351562 -6.335938 8.4375 -5.757812 8.4375 -5.125 L 8.4375 0 L 6.78125 0 L 6.78125 -5.015625 C 6.78125 -5.410156 6.726562 -5.769531 6.625 -6.09375 C 6.519531 -6.414062 6.335938 -6.664062 6.078125 -6.84375 C 5.828125 -7.03125 5.472656 -7.109375 5.015625 -7.078125 C 4.585938 -7.078125 4.207031 -6.984375 3.875 -6.796875 C 3.539062 -6.617188 3.273438 -6.378906 3.078125 -6.078125 C 2.890625 -5.773438 2.796875 -5.445312 2.796875 -5.09375 L 2.796875 0 L 1.15625 0 L 1.15625 -8.40625 L 2.796875 -8.40625 L 2.796875 -7.078125 C 3.054688 -7.460938 3.429688 -7.804688 3.921875 -8.109375 C 4.410156 -8.421875 4.953125 -8.578125 5.546875 -8.578125 Z M 5.546875 -8.578125 "/></g></g></g><g fill="#ffa500" fill-opacity="1"><g transform="translate(401.414107, 286.081355)"><g><path d="M 9.03125 -11.84375 L 9.03125 0 L 7.375 0 L 7.375 -1.1875 C 7.132812 -0.851562 6.769531 -0.546875 6.28125 -0.265625 C 5.800781 0.015625 5.257812 0.15625 4.65625 0.15625 C 3.894531 0.15625 3.210938 -0.0234375 2.609375 -0.390625 C 2.003906 -0.765625 1.523438 -1.28125 1.171875 -1.9375 C 0.816406 -2.601562 0.640625 -3.359375 0.640625 -4.203125 C 0.640625 -5.054688 0.816406 -5.8125 1.171875 -6.46875 C 1.523438 -7.125 2 -7.640625 2.59375 -8.015625 C 3.1875 -8.390625 3.859375 -8.578125 4.609375 -8.578125 C 5.203125 -8.578125 5.738281 -8.453125 6.21875 -8.203125 C 6.707031 -7.960938 7.09375 -7.675781 7.375 -7.34375 L 7.375 -11.84375 Z M 4.875 -1.265625 C 5.382812 -1.265625 5.832031 -1.390625 6.21875 -1.640625 C 6.601562 -1.898438 6.898438 -2.253906 7.109375 -2.703125 C 7.328125 -3.148438 7.4375 -3.648438 7.4375 -4.203125 C 7.4375 -4.773438 7.328125 -5.28125 7.109375 -5.71875 C 6.898438 -6.164062 6.601562 -6.515625 6.21875 -6.765625 C 5.832031 -7.023438 5.382812 -7.15625 4.875 -7.15625 C 4.375 -7.15625 3.929688 -7.023438 3.546875 -6.765625 C 3.160156 -6.515625 2.859375 -6.164062 2.640625 -5.71875 C 2.421875 -5.28125 2.3125 -4.773438 2.3125 -4.203125 C 2.3125 -3.648438 2.421875 -3.148438 2.640625 -2.703125 C 2.859375 -2.253906 3.160156 -1.898438 3.546875 -1.640625 C 3.929688 -1.390625 4.375 -1.265625 4.875 -1.265625 Z M 4.875 -1.265625 "/></g></g></g><g fill="#ffa500" fill-opacity="1"><g transform="translate(153.864871, 307.831354)"><g><path d="M 3.84375 0 L 2.1875 0 L 2.1875 -6.796875 L 0.453125 -6.796875 L 0.453125 -8.40625 L 2.1875 -8.40625 L 2.1875 -10.546875 L 3.84375 -10.546875 L 3.84375 -8.40625 L 5.796875 -8.40625 L 5.796875 -6.796875 L 3.84375 -6.796875 Z M 3.84375 0 "/></g></g></g><g fill="#ffa500" fill-opacity="1"><g transform="translate(160.007395, 307.831354)"><g><path d="M 6.875 -3.34375 L 6.875 -8.40625 L 8.53125 -8.40625 L 8.53125 0 L 6.875 0 L 6.875 -1.34375 C 6.632812 -0.945312 6.273438 -0.597656 5.796875 -0.296875 C 5.328125 0.00390625 4.757812 0.15625 4.09375 0.15625 C 3.21875 0.15625 2.507812 -0.140625 1.96875 -0.734375 C 1.425781 -1.328125 1.15625 -2.15625 1.15625 -3.21875 L 1.15625 -8.40625 L 2.796875 -8.40625 L 2.796875 -3.65625 C 2.796875 -3.238281 2.863281 -2.847656 3 -2.484375 C 3.132812 -2.117188 3.347656 -1.828125 3.640625 -1.609375 C 3.929688 -1.390625 4.304688 -1.28125 4.765625 -1.28125 C 5.335938 -1.28125 5.832031 -1.460938 6.25 -1.828125 C 6.664062 -2.191406 6.875 -2.695312 6.875 -3.34375 Z M 6.875 -3.34375 "/></g></g></g><g fill="#ffa500" fill-opacity="1"><g transform="translate(169.685068, 307.831354)"><g><path d="M 3.84375 0 L 2.1875 0 L 2.1875 -6.796875 L 0.453125 -6.796875 L 0.453125 -8.40625 L 2.1875 -8.40625 L 2.1875 -10.546875 L 3.84375 -10.546875 L 3.84375 -8.40625 L 5.796875 -8.40625 L 5.796875 -6.796875 L 3.84375 -6.796875 Z M 3.84375 0 "/></g></g></g><g fill="#ffa500" fill-opacity="1"><g transform="translate(175.827592, 307.831354)"><g><path d="M 9.203125 -4.203125 C 9.203125 -3.347656 9.007812 -2.59375 8.625 -1.9375 C 8.25 -1.28125 7.738281 -0.765625 7.09375 -0.390625 C 6.445312 -0.0234375 5.722656 0.15625 4.921875 0.15625 C 4.128906 0.15625 3.40625 -0.0234375 2.75 -0.390625 C 2.101562 -0.765625 1.585938 -1.28125 1.203125 -1.9375 C 0.828125 -2.59375 0.640625 -3.347656 0.640625 -4.203125 C 0.640625 -5.054688 0.828125 -5.8125 1.203125 -6.46875 C 1.585938 -7.125 2.101562 -7.640625 2.75 -8.015625 C 3.40625 -8.390625 4.128906 -8.578125 4.921875 -8.578125 C 5.722656 -8.578125 6.445312 -8.390625 7.09375 -8.015625 C 7.738281 -7.640625 8.25 -7.125 8.625 -6.46875 C 9.007812 -5.8125 9.203125 -5.054688 9.203125 -4.203125 Z M 7.515625 -4.203125 C 7.523438 -4.773438 7.414062 -5.273438 7.1875 -5.703125 C 6.957031 -6.140625 6.644531 -6.476562 6.25 -6.71875 C 5.851562 -6.957031 5.410156 -7.078125 4.921875 -7.078125 C 4.429688 -7.078125 3.984375 -6.957031 3.578125 -6.71875 C 3.179688 -6.476562 2.867188 -6.140625 2.640625 -5.703125 C 2.410156 -5.273438 2.300781 -4.773438 2.3125 -4.203125 C 2.300781 -3.648438 2.410156 -3.15625 2.640625 -2.71875 C 2.867188 -2.289062 3.179688 -1.953125 3.578125 -1.703125 C 3.984375 -1.460938 4.429688 -1.34375 4.921875 -1.34375 C 5.410156 -1.34375 5.851562 -1.460938 6.25 -1.703125 C 6.644531 -1.953125 6.957031 -2.289062 7.1875 -2.71875 C 7.414062 -3.15625 7.523438 -3.648438 7.515625 -4.203125 Z M 7.515625 -4.203125 "/></g></g></g><g fill="#ffa500" fill-opacity="1"><g transform="translate(185.66523, 307.831354)"><g><path d="M 5.859375 -6.625 C 5.753906 -6.675781 5.625 -6.71875 5.46875 -6.75 C 5.3125 -6.789062 5.144531 -6.8125 4.96875 -6.8125 C 4.632812 -6.8125 4.300781 -6.722656 3.96875 -6.546875 C 3.632812 -6.367188 3.359375 -6.117188 3.140625 -5.796875 C 2.921875 -5.472656 2.8125 -5.085938 2.8125 -4.640625 L 2.8125 0 L 1.15625 0 L 1.15625 -8.40625 L 2.8125 -8.40625 L 2.8125 -6.8125 C 3.050781 -7.320312 3.40625 -7.742188 3.875 -8.078125 C 4.351562 -8.410156 4.851562 -8.578125 5.375 -8.578125 C 5.769531 -8.578125 6.070312 -8.523438 6.28125 -8.421875 Z M 5.859375 -6.625 "/></g></g></g><g fill="#ffa500" fill-opacity="1"><g transform="translate(192.111686, 307.831354)"><g><path d="M 2.265625 -10.21875 C 1.890625 -10.21875 1.609375 -10.3125 1.421875 -10.5 C 1.242188 -10.695312 1.15625 -10.953125 1.15625 -11.265625 C 1.15625 -11.523438 1.242188 -11.757812 1.421875 -11.96875 C 1.609375 -12.1875 1.890625 -12.296875 2.265625 -12.296875 C 2.628906 -12.296875 2.898438 -12.195312 3.078125 -12 C 3.265625 -11.8125 3.359375 -11.566406 3.359375 -11.265625 C 3.359375 -10.992188 3.265625 -10.75 3.078125 -10.53125 C 2.898438 -10.320312 2.628906 -10.21875 2.265625 -10.21875 Z M 3.09375 0 L 1.453125 0 L 1.453125 -8.40625 L 3.09375 -8.40625 Z M 3.09375 0 "/></g></g></g><g fill="#ffa500" fill-opacity="1"><g transform="translate(196.55862, 307.831354)"><g><path d="M 5.546875 -8.578125 C 6.304688 -8.578125 6.894531 -8.421875 7.3125 -8.109375 C 7.726562 -7.796875 8.019531 -7.378906 8.1875 -6.859375 C 8.351562 -6.335938 8.4375 -5.757812 8.4375 -5.125 L 8.4375 0 L 6.78125 0 L 6.78125 -5.015625 C 6.78125 -5.410156 6.726562 -5.769531 6.625 -6.09375 C 6.519531 -6.414062 6.335938 -6.664062 6.078125 -6.84375 C 5.828125 -7.03125 5.472656 -7.109375 5.015625 -7.078125 C 4.585938 -7.078125 4.207031 -6.984375 3.875 -6.796875 C 3.539062 -6.617188 3.273438 -6.378906 3.078125 -6.078125 C 2.890625 -5.773438 2.796875 -5.445312 2.796875 -5.09375 L 2.796875 0 L 1.15625 0 L 1.15625 -8.40625 L 2.796875 -8.40625 L 2.796875 -7.078125 C 3.054688 -7.460938 3.429688 -7.804688 3.921875 -8.109375 C 4.410156 -8.421875 4.953125 -8.578125 5.546875 -8.578125 Z M 5.546875 -8.578125 "/></g></g></g><g fill="#ffa500" fill-opacity="1"><g transform="translate(206.076338, 307.831354)"><g><path d="M 2.296875 1.390625 C 2.617188 1.640625 3.019531 1.835938 3.5 1.984375 C 3.976562 2.128906 4.445312 2.203125 4.90625 2.203125 C 5.769531 2.203125 6.429688 1.988281 6.890625 1.5625 C 7.347656 1.144531 7.578125 0.519531 7.578125 -0.3125 L 7.578125 -1.34375 C 7.429688 -1.082031 7.21875 -0.835938 6.9375 -0.609375 C 6.664062 -0.378906 6.34375 -0.191406 5.96875 -0.046875 C 5.59375 0.0859375 5.203125 0.15625 4.796875 0.15625 C 4.015625 0.15625 3.3125 -0.0234375 2.6875 -0.390625 C 2.0625 -0.765625 1.5625 -1.28125 1.1875 -1.9375 C 0.820312 -2.601562 0.640625 -3.359375 0.640625 -4.203125 C 0.640625 -5.054688 0.820312 -5.8125 1.1875 -6.46875 C 1.550781 -7.125 2.039062 -7.640625 2.65625 -8.015625 C 3.28125 -8.390625 3.976562 -8.578125 4.75 -8.578125 C 5.394531 -8.578125 5.960938 -8.4375 6.453125 -8.15625 C 6.953125 -7.875 7.328125 -7.566406 7.578125 -7.234375 L 7.578125 -8.40625 L 9.234375 -8.40625 L 9.234375 -0.515625 C 9.234375 0.484375 9.03125 1.289062 8.625 1.90625 C 8.226562 2.519531 7.703125 2.96875 7.046875 3.25 C 6.390625 3.539062 5.675781 3.6875 4.90625 3.6875 C 4.3125 3.6875 3.71875 3.59375 3.125 3.40625 C 2.53125 3.21875 2.054688 2.972656 1.703125 2.671875 Z M 4.96875 -7.078125 C 4.457031 -7.078125 4.003906 -6.945312 3.609375 -6.6875 C 3.210938 -6.4375 2.894531 -6.097656 2.65625 -5.671875 C 2.425781 -5.242188 2.3125 -4.753906 2.3125 -4.203125 C 2.3125 -3.660156 2.425781 -3.175781 2.65625 -2.75 C 2.894531 -2.320312 3.210938 -1.984375 3.609375 -1.734375 C 4.003906 -1.484375 4.457031 -1.359375 4.96875 -1.359375 C 5.507812 -1.359375 5.976562 -1.476562 6.375 -1.71875 C 6.769531 -1.96875 7.078125 -2.304688 7.296875 -2.734375 C 7.523438 -3.171875 7.640625 -3.660156 7.640625 -4.203125 C 7.640625 -4.765625 7.523438 -5.253906 7.296875 -5.671875 C 7.078125 -6.097656 6.769531 -6.4375 6.375 -6.6875 C 5.976562 -6.945312 5.507812 -7.078125 4.96875 -7.078125 Z M 4.96875 -7.078125 "/></g></g></g><g fill="#ffa500" fill-opacity="1"><g transform="translate(216.457845, 307.831354)"><g/></g></g><g fill="#ffa500" fill-opacity="1"><g transform="translate(220.936765, 307.831354)"><g><path d="M 12.453125 -8.40625 L 9.609375 0 L 8.484375 0 L 6.34375 -4.875 L 4.34375 0 L 3.21875 0 L 0.359375 -8.40625 L 2.015625 -8.421875 L 3.90625 -2.625 L 5.921875 -7.078125 L 6.90625 -7.078125 L 8.90625 -2.6875 L 10.78125 -8.40625 Z M 12.453125 -8.40625 "/></g></g></g><g fill="#ffa500" fill-opacity="1"><g transform="translate(233.733696, 307.831354)"><g><path d="M 2.265625 -10.21875 C 1.890625 -10.21875 1.609375 -10.3125 1.421875 -10.5 C 1.242188 -10.695312 1.15625 -10.953125 1.15625 -11.265625 C 1.15625 -11.523438 1.242188 -11.757812 1.421875 -11.96875 C 1.609375 -12.1875 1.890625 -12.296875 2.265625 -12.296875 C 2.628906 -12.296875 2.898438 -12.195312 3.078125 -12 C 3.265625 -11.8125 3.359375 -11.566406 3.359375 -11.265625 C 3.359375 -10.992188 3.265625 -10.75 3.078125 -10.53125 C 2.898438 -10.320312 2.628906 -10.21875 2.265625 -10.21875 Z M 3.09375 0 L 1.453125 0 L 1.453125 -8.40625 L 3.09375 -8.40625 Z M 3.09375 0 "/></g></g></g><g fill="#ffa500" fill-opacity="1"><g transform="translate(238.180629, 307.831354)"><g><path d="M 3.84375 0 L 2.1875 0 L 2.1875 -6.796875 L 0.453125 -6.796875 L 0.453125 -8.40625 L 2.1875 -8.40625 L 2.1875 -10.546875 L 3.84375 -10.546875 L 3.84375 -8.40625 L 5.796875 -8.40625 L 5.796875 -6.796875 L 3.84375 -6.796875 Z M 3.84375 0 "/></g></g></g><g fill="#ffa500" fill-opacity="1"><g transform="translate(244.323154, 307.831354)"><g><path d="M 5.546875 -8.578125 C 6.304688 -8.578125 6.894531 -8.421875 7.3125 -8.109375 C 7.726562 -7.796875 8.019531 -7.378906 8.1875 -6.859375 C 8.351562 -6.335938 8.4375 -5.757812 8.4375 -5.125 L 8.4375 0 L 6.78125 0 L 6.78125 -5.015625 C 6.78125 -5.410156 6.726562 -5.769531 6.625 -6.09375 C 6.519531 -6.414062 6.335938 -6.664062 6.078125 -6.84375 C 5.828125 -7.03125 5.472656 -7.109375 5.015625 -7.078125 C 4.585938 -7.078125 4.207031 -6.984375 3.875 -6.796875 C 3.539062 -6.617188 3.273438 -6.378906 3.078125 -6.078125 C 2.890625 -5.773438 2.796875 -5.445312 2.796875 -5.09375 L 2.796875 0 L 1.15625 0 L 1.15625 -11.84375 L 2.796875 -11.84375 L 2.796875 -7.078125 C 3.054688 -7.460938 3.429688 -7.804688 3.921875 -8.109375 C 4.410156 -8.421875 4.953125 -8.578125 5.546875 -8.578125 Z M 5.546875 -8.578125 "/></g></g></g><g fill="#ffa500" fill-opacity="1"><g transform="translate(253.840872, 307.831354)"><g/></g></g><g fill="#ffa500" fill-opacity="1"><g transform="translate(258.319792, 307.831354)"><g><path d="M 6 -6.1875 C 5.695312 -6.488281 5.359375 -6.734375 4.984375 -6.921875 C 4.609375 -7.117188 4.257812 -7.21875 3.9375 -7.21875 C 3.707031 -7.21875 3.484375 -7.191406 3.265625 -7.140625 C 3.046875 -7.085938 2.863281 -6.988281 2.71875 -6.84375 C 2.570312 -6.695312 2.5 -6.484375 2.5 -6.203125 C 2.507812 -5.816406 2.679688 -5.546875 3.015625 -5.390625 C 3.347656 -5.234375 3.765625 -5.085938 4.265625 -4.953125 C 4.703125 -4.835938 5.128906 -4.691406 5.546875 -4.515625 C 5.960938 -4.335938 6.304688 -4.082031 6.578125 -3.75 C 6.847656 -3.414062 6.984375 -2.945312 6.984375 -2.34375 C 6.984375 -1.8125 6.835938 -1.359375 6.546875 -0.984375 C 6.253906 -0.617188 5.875 -0.335938 5.40625 -0.140625 C 4.945312 0.0546875 4.460938 0.15625 3.953125 0.15625 C 3.347656 0.15625 2.75 0.046875 2.15625 -0.171875 C 1.5625 -0.390625 1.054688 -0.765625 0.640625 -1.296875 L 1.765625 -2.25 C 2.046875 -1.925781 2.367188 -1.671875 2.734375 -1.484375 C 3.109375 -1.296875 3.5625 -1.203125 4.09375 -1.203125 C 4.300781 -1.203125 4.503906 -1.234375 4.703125 -1.296875 C 4.910156 -1.367188 5.082031 -1.484375 5.21875 -1.640625 C 5.363281 -1.796875 5.4375 -2.003906 5.4375 -2.265625 C 5.4375 -2.523438 5.359375 -2.726562 5.203125 -2.875 C 5.046875 -3.019531 4.835938 -3.132812 4.578125 -3.21875 C 4.328125 -3.3125 4.050781 -3.394531 3.75 -3.46875 C 3.289062 -3.59375 2.835938 -3.75 2.390625 -3.9375 C 1.953125 -4.125 1.582031 -4.390625 1.28125 -4.734375 C 0.988281 -5.085938 0.84375 -5.5625 0.84375 -6.15625 C 0.84375 -6.65625 0.984375 -7.082031 1.265625 -7.4375 C 1.554688 -7.800781 1.929688 -8.082031 2.390625 -8.28125 C 2.847656 -8.476562 3.335938 -8.578125 3.859375 -8.578125 C 4.359375 -8.578125 4.898438 -8.46875 5.484375 -8.25 C 6.078125 -8.039062 6.5625 -7.703125 6.9375 -7.234375 Z M 6 -6.1875 "/></g></g></g><g fill="#ffa500" fill-opacity="1"><g transform="translate(265.981954, 307.831354)"><g><path d="M 3.84375 0 L 2.1875 0 L 2.1875 -6.796875 L 0.453125 -6.796875 L 0.453125 -8.40625 L 2.1875 -8.40625 L 2.1875 -10.546875 L 3.84375 -10.546875 L 3.84375 -8.40625 L 5.796875 -8.40625 L 5.796875 -6.796875 L 3.84375 -6.796875 Z M 3.84375 0 "/></g></g></g><g fill="#ffa500" fill-opacity="1"><g transform="translate(272.124478, 307.831354)"><g><path d="M 6.875 -3.34375 L 6.875 -8.40625 L 8.53125 -8.40625 L 8.53125 0 L 6.875 0 L 6.875 -1.34375 C 6.632812 -0.945312 6.273438 -0.597656 5.796875 -0.296875 C 5.328125 0.00390625 4.757812 0.15625 4.09375 0.15625 C 3.21875 0.15625 2.507812 -0.140625 1.96875 -0.734375 C 1.425781 -1.328125 1.15625 -2.15625 1.15625 -3.21875 L 1.15625 -8.40625 L 2.796875 -8.40625 L 2.796875 -3.65625 C 2.796875 -3.238281 2.863281 -2.847656 3 -2.484375 C 3.132812 -2.117188 3.347656 -1.828125 3.640625 -1.609375 C 3.929688 -1.390625 4.304688 -1.28125 4.765625 -1.28125 C 5.335938 -1.28125 5.832031 -1.460938 6.25 -1.828125 C 6.664062 -2.191406 6.875 -2.695312 6.875 -3.34375 Z M 6.875 -3.34375 "/></g></g></g><g fill="#ffa500" fill-opacity="1"><g transform="translate(281.802151, 307.831354)"><g><path d="M 9.03125 -11.84375 L 9.03125 0 L 7.375 0 L 7.375 -1.1875 C 7.132812 -0.851562 6.769531 -0.546875 6.28125 -0.265625 C 5.800781 0.015625 5.257812 0.15625 4.65625 0.15625 C 3.894531 0.15625 3.210938 -0.0234375 2.609375 -0.390625 C 2.003906 -0.765625 1.523438 -1.28125 1.171875 -1.9375 C 0.816406 -2.601562 0.640625 -3.359375 0.640625 -4.203125 C 0.640625 -5.054688 0.816406 -5.8125 1.171875 -6.46875 C 1.523438 -7.125 2 -7.640625 2.59375 -8.015625 C 3.1875 -8.390625 3.859375 -8.578125 4.609375 -8.578125 C 5.203125 -8.578125 5.738281 -8.453125 6.21875 -8.203125 C 6.707031 -7.960938 7.09375 -7.675781 7.375 -7.34375 L 7.375 -11.84375 Z M 4.875 -1.265625 C 5.382812 -1.265625 5.832031 -1.390625 6.21875 -1.640625 C 6.601562 -1.898438 6.898438 -2.253906 7.109375 -2.703125 C 7.328125 -3.148438 7.4375 -3.648438 7.4375 -4.203125 C 7.4375 -4.773438 7.328125 -5.28125 7.109375 -5.71875 C 6.898438 -6.164062 6.601562 -6.515625 6.21875 -6.765625 C 5.832031 -7.023438 5.382812 -7.15625 4.875 -7.15625 C 4.375 -7.15625 3.929688 -7.023438 3.546875 -6.765625 C 3.160156 -6.515625 2.859375 -6.164062 2.640625 -5.71875 C 2.421875 -5.28125 2.3125 -4.773438 2.3125 -4.203125 C 2.3125 -3.648438 2.421875 -3.148438 2.640625 -2.703125 C 2.859375 -2.253906 3.160156 -1.898438 3.546875 -1.640625 C 3.929688 -1.390625 4.375 -1.265625 4.875 -1.265625 Z M 4.875 -1.265625 "/></g></g></g><g fill="#ffa500" fill-opacity="1"><g transform="translate(291.94371, 307.831354)"><g><path d="M 8.375 -1.109375 L 8.359375 -1.109375 C 8.015625 -0.773438 7.539062 -0.476562 6.9375 -0.21875 C 6.34375 0.03125 5.722656 0.15625 5.078125 0.15625 C 4.203125 0.15625 3.429688 -0.0234375 2.765625 -0.390625 C 2.097656 -0.753906 1.578125 -1.257812 1.203125 -1.90625 C 0.828125 -2.550781 0.640625 -3.285156 0.640625 -4.109375 C 0.640625 -5.046875 0.835938 -5.847656 1.234375 -6.515625 C 1.628906 -7.179688 2.148438 -7.691406 2.796875 -8.046875 C 3.453125 -8.410156 4.160156 -8.59375 4.921875 -8.59375 C 5.628906 -8.59375 6.269531 -8.414062 6.84375 -8.0625 C 7.425781 -7.71875 7.882812 -7.242188 8.21875 -6.640625 C 8.5625 -6.035156 8.734375 -5.328125 8.734375 -4.515625 L 8.71875 -3.8125 L 2.28125 -3.8125 C 2.382812 -3.050781 2.695312 -2.445312 3.21875 -2 C 3.75 -1.5625 4.421875 -1.34375 5.234375 -1.34375 C 5.816406 -1.34375 6.289062 -1.453125 6.65625 -1.671875 C 7.019531 -1.890625 7.316406 -2.097656 7.546875 -2.296875 Z M 4.921875 -7.078125 C 4.296875 -7.078125 3.75 -6.925781 3.28125 -6.625 C 2.8125 -6.332031 2.503906 -5.832031 2.359375 -5.125 L 7.0625 -5.125 L 7.0625 -5.234375 C 7.03125 -5.597656 6.910156 -5.914062 6.703125 -6.1875 C 6.492188 -6.46875 6.234375 -6.6875 5.921875 -6.84375 C 5.609375 -7 5.273438 -7.078125 4.921875 -7.078125 Z M 4.921875 -7.078125 "/></g></g></g><g fill="#ffa500" fill-opacity="1"><g transform="translate(301.317462, 307.831354)"><g><path d="M 5.546875 -8.578125 C 6.304688 -8.578125 6.894531 -8.421875 7.3125 -8.109375 C 7.726562 -7.796875 8.019531 -7.378906 8.1875 -6.859375 C 8.351562 -6.335938 8.4375 -5.757812 8.4375 -5.125 L 8.4375 0 L 6.78125 0 L 6.78125 -5.015625 C 6.78125 -5.410156 6.726562 -5.769531 6.625 -6.09375 C 6.519531 -6.414062 6.335938 -6.664062 6.078125 -6.84375 C 5.828125 -7.03125 5.472656 -7.109375 5.015625 -7.078125 C 4.585938 -7.078125 4.207031 -6.984375 3.875 -6.796875 C 3.539062 -6.617188 3.273438 -6.378906 3.078125 -6.078125 C 2.890625 -5.773438 2.796875 -5.445312 2.796875 -5.09375 L 2.796875 0 L 1.15625 0 L 1.15625 -8.40625 L 2.796875 -8.40625 L 2.796875 -7.078125 C 3.054688 -7.460938 3.429688 -7.804688 3.921875 -8.109375 C 4.410156 -8.421875 4.953125 -8.578125 5.546875 -8.578125 Z M 5.546875 -8.578125 "/></g></g></g><g fill="#ffa500" fill-opacity="1"><g transform="translate(310.83518, 307.831354)"><g><path d="M 3.84375 0 L 2.1875 0 L 2.1875 -6.796875 L 0.453125 -6.796875 L 0.453125 -8.40625 L 2.1875 -8.40625 L 2.1875 -10.546875 L 3.84375 -10.546875 L 3.84375 -8.40625 L 5.796875 -8.40625 L 5.796875 -6.796875 L 3.84375 -6.796875 Z M 3.84375 0 "/></g></g></g><g fill="#ffa500" fill-opacity="1"><g transform="translate(316.977704, 307.831354)"><g/></g></g><g fill="#ffa500" fill-opacity="1"><g transform="translate(321.456624, 307.831354)"><g><path d="M 3.84375 0 L 2.1875 0 L 2.1875 -6.796875 L 0.453125 -6.796875 L 0.453125 -8.40625 L 2.1875 -8.40625 L 2.1875 -10.546875 L 3.84375 -10.546875 L 3.84375 -8.40625 L 5.796875 -8.40625 L 5.796875 -6.796875 L 3.84375 -6.796875 Z M 3.84375 0 "/></g></g></g><g fill="#ffa500" fill-opacity="1"><g transform="translate(327.599148, 307.831354)"><g><path d="M 6.875 -3.34375 L 6.875 -8.40625 L 8.53125 -8.40625 L 8.53125 0 L 6.875 0 L 6.875 -1.34375 C 6.632812 -0.945312 6.273438 -0.597656 5.796875 -0.296875 C 5.328125 0.00390625 4.757812 0.15625 4.09375 0.15625 C 3.21875 0.15625 2.507812 -0.140625 1.96875 -0.734375 C 1.425781 -1.328125 1.15625 -2.15625 1.15625 -3.21875 L 1.15625 -8.40625 L 2.796875 -8.40625 L 2.796875 -3.65625 C 2.796875 -3.238281 2.863281 -2.847656 3 -2.484375 C 3.132812 -2.117188 3.347656 -1.828125 3.640625 -1.609375 C 3.929688 -1.390625 4.304688 -1.28125 4.765625 -1.28125 C 5.335938 -1.28125 5.832031 -1.460938 6.25 -1.828125 C 6.664062 -2.191406 6.875 -2.695312 6.875 -3.34375 Z M 6.875 -3.34375 "/></g></g></g><g fill="#ffa500" fill-opacity="1"><g transform="translate(337.276821, 307.831354)"><g><path d="M 3.84375 0 L 2.1875 0 L 2.1875 -6.796875 L 0.453125 -6.796875 L 0.453125 -8.40625 L 2.1875 -8.40625 L 2.1875 -10.546875 L 3.84375 -10.546875 L 3.84375 -8.40625 L 5.796875 -8.40625 L 5.796875 -6.796875 L 3.84375 -6.796875 Z M 3.84375 0 "/></g></g></g><g fill="#ffa500" fill-opacity="1"><g transform="translate(343.419345, 307.831354)"><g><path d="M 9.203125 -4.203125 C 9.203125 -3.347656 9.007812 -2.59375 8.625 -1.9375 C 8.25 -1.28125 7.738281 -0.765625 7.09375 -0.390625 C 6.445312 -0.0234375 5.722656 0.15625 4.921875 0.15625 C 4.128906 0.15625 3.40625 -0.0234375 2.75 -0.390625 C 2.101562 -0.765625 1.585938 -1.28125 1.203125 -1.9375 C 0.828125 -2.59375 0.640625 -3.347656 0.640625 -4.203125 C 0.640625 -5.054688 0.828125 -5.8125 1.203125 -6.46875 C 1.585938 -7.125 2.101562 -7.640625 2.75 -8.015625 C 3.40625 -8.390625 4.128906 -8.578125 4.921875 -8.578125 C 5.722656 -8.578125 6.445312 -8.390625 7.09375 -8.015625 C 7.738281 -7.640625 8.25 -7.125 8.625 -6.46875 C 9.007812 -5.8125 9.203125 -5.054688 9.203125 -4.203125 Z M 7.515625 -4.203125 C 7.523438 -4.773438 7.414062 -5.273438 7.1875 -5.703125 C 6.957031 -6.140625 6.644531 -6.476562 6.25 -6.71875 C 5.851562 -6.957031 5.410156 -7.078125 4.921875 -7.078125 C 4.429688 -7.078125 3.984375 -6.957031 3.578125 -6.71875 C 3.179688 -6.476562 2.867188 -6.140625 2.640625 -5.703125 C 2.410156 -5.273438 2.300781 -4.773438 2.3125 -4.203125 C 2.300781 -3.648438 2.410156 -3.15625 2.640625 -2.71875 C 2.867188 -2.289062 3.179688 -1.953125 3.578125 -1.703125 C 3.984375 -1.460938 4.429688 -1.34375 4.921875 -1.34375 C 5.410156 -1.34375 5.851562 -1.460938 6.25 -1.703125 C 6.644531 -1.953125 6.957031 -2.289062 7.1875 -2.71875 C 7.414062 -3.15625 7.523438 -3.648438 7.515625 -4.203125 Z M 7.515625 -4.203125 "/></g></g></g><g fill="#ffa500" fill-opacity="1"><g transform="translate(353.256983, 307.831354)"><g><path d="M 5.859375 -6.625 C 5.753906 -6.675781 5.625 -6.71875 5.46875 -6.75 C 5.3125 -6.789062 5.144531 -6.8125 4.96875 -6.8125 C 4.632812 -6.8125 4.300781 -6.722656 3.96875 -6.546875 C 3.632812 -6.367188 3.359375 -6.117188 3.140625 -5.796875 C 2.921875 -5.472656 2.8125 -5.085938 2.8125 -4.640625 L 2.8125 0 L 1.15625 0 L 1.15625 -8.40625 L 2.8125 -8.40625 L 2.8125 -6.8125 C 3.050781 -7.320312 3.40625 -7.742188 3.875 -8.078125 C 4.351562 -8.410156 4.851562 -8.578125 5.375 -8.578125 C 5.769531 -8.578125 6.070312 -8.523438 6.28125 -8.421875 Z M 5.859375 -6.625 "/></g></g></g><g fill="#ffa500" fill-opacity="1"><g transform="translate(359.70344, 307.831354)"><g><path d="M 6 -6.1875 C 5.695312 -6.488281 5.359375 -6.734375 4.984375 -6.921875 C 4.609375 -7.117188 4.257812 -7.21875 3.9375 -7.21875 C 3.707031 -7.21875 3.484375 -7.191406 3.265625 -7.140625 C 3.046875 -7.085938 2.863281 -6.988281 2.71875 -6.84375 C 2.570312 -6.695312 2.5 -6.484375 2.5 -6.203125 C 2.507812 -5.816406 2.679688 -5.546875 3.015625 -5.390625 C 3.347656 -5.234375 3.765625 -5.085938 4.265625 -4.953125 C 4.703125 -4.835938 5.128906 -4.691406 5.546875 -4.515625 C 5.960938 -4.335938 6.304688 -4.082031 6.578125 -3.75 C 6.847656 -3.414062 6.984375 -2.945312 6.984375 -2.34375 C 6.984375 -1.8125 6.835938 -1.359375 6.546875 -0.984375 C 6.253906 -0.617188 5.875 -0.335938 5.40625 -0.140625 C 4.945312 0.0546875 4.460938 0.15625 3.953125 0.15625 C 3.347656 0.15625 2.75 0.046875 2.15625 -0.171875 C 1.5625 -0.390625 1.054688 -0.765625 0.640625 -1.296875 L 1.765625 -2.25 C 2.046875 -1.925781 2.367188 -1.671875 2.734375 -1.484375 C 3.109375 -1.296875 3.5625 -1.203125 4.09375 -1.203125 C 4.300781 -1.203125 4.503906 -1.234375 4.703125 -1.296875 C 4.910156 -1.367188 5.082031 -1.484375 5.21875 -1.640625 C 5.363281 -1.796875 5.4375 -2.003906 5.4375 -2.265625 C 5.4375 -2.523438 5.359375 -2.726562 5.203125 -2.875 C 5.046875 -3.019531 4.835938 -3.132812 4.578125 -3.21875 C 4.328125 -3.3125 4.050781 -3.394531 3.75 -3.46875 C 3.289062 -3.59375 2.835938 -3.75 2.390625 -3.9375 C 1.953125 -4.125 1.582031 -4.390625 1.28125 -4.734375 C 0.988281 -5.085938 0.84375 -5.5625 0.84375 -6.15625 C 0.84375 -6.65625 0.984375 -7.082031 1.265625 -7.4375 C 1.554688 -7.800781 1.929688 -8.082031 2.390625 -8.28125 C 2.847656 -8.476562 3.335938 -8.578125 3.859375 -8.578125 C 4.359375 -8.578125 4.898438 -8.46875 5.484375 -8.25 C 6.078125 -8.039062 6.5625 -7.703125 6.9375 -7.234375 Z M 6 -6.1875 "/></g></g></g><g fill="#ffa500" fill-opacity="1"><g transform="translate(367.365602, 307.831354)"><g><path d="M 1.390625 -3.859375 C 1.328125 -4.441406 1.265625 -5.082031 1.203125 -5.78125 C 1.148438 -6.476562 1.101562 -7.195312 1.0625 -7.9375 C 1.03125 -8.675781 1.015625 -9.390625 1.015625 -10.078125 L 1.015625 -11.203125 L 2.734375 -11.203125 L 2.734375 -10.078125 C 2.734375 -9.390625 2.71875 -8.675781 2.6875 -7.9375 C 2.65625 -7.195312 2.609375 -6.476562 2.546875 -5.78125 C 2.492188 -5.082031 2.429688 -4.441406 2.359375 -3.859375 Z M 1.828125 0.171875 C 1.453125 0.171875 1.171875 0.0625 0.984375 -0.15625 C 0.804688 -0.375 0.71875 -0.664062 0.71875 -1.03125 C 0.71875 -1.332031 0.804688 -1.601562 0.984375 -1.84375 C 1.171875 -2.09375 1.453125 -2.21875 1.828125 -2.21875 C 2.203125 -2.21875 2.476562 -2.109375 2.65625 -1.890625 C 2.832031 -1.671875 2.921875 -1.382812 2.921875 -1.03125 C 2.921875 -0.726562 2.832031 -0.453125 2.65625 -0.203125 C 2.476562 0.046875 2.203125 0.171875 1.828125 0.171875 Z M 1.828125 0.171875 "/></g></g></g></svg>